wght1000_wdth125.ufo
<glyph name="zero" format="2">
	<unicode hex="0030"/>
	<advance width="1155"/>
	<outline>
		<contour>
			<point x="67.38671875" y="879.9899902344" type="qcurve" smooth="yes"/>
			<point x="132.2805786133" y="1223.6710205078"/>
			<point x="501.0634155273" y="1586.9799804688"/>
			<point x="740.3720703125" y="1535.9799804688" type="qcurve" smooth="yes"/>
			<point x="880.0172729492" y="1486.9799804688"/>
			<point x="1126.5772705078" y="987.7507324219"/>
			<point x="1051.9371948242" y="639.4050292969" type="qcurve" smooth="yes"/>
			<point x="977.3358154297" y="285.8380126953"/>
			<point x="626.7050170898" y="-76"/>
			<point x="371.7824707031" y="-14" type="qcurve" smooth="yes"/>
			<point x="234.5706787109" y="42"/>
			<point x="1.8928833008" y="531.5676879883"/>
		</contour>
		<contour>
			<point x="249.3935546875" y="870.9899902344" type="qcurve" smooth="yes"/>
			<point x="177.0308837891" y="523.8895263672"/>
			<point x="264.3208007812" y="136.8374023438"/>
			<point x="424.3833007812" y="97.8374023438" type="qcurve" smooth="yes"/>
			<point x="581.9458007812" y="58.8374023438"/>
			<point x="813.23046875" y="365.9823608398"/>
			<point x="880.2497558594" y="719.9899902344" type="qcurve" smooth="yes"/>
			<point x="939.6760864258" y="1033.6905517578"/>
			<point x="852.3330078125" y="1389.0034179688"/>
			<point x="695.9580078125" y="1423.0034179688" type="qcurve" smooth="yes"/>
			<point x="543.3330078125" y="1457.0034179688"/>
			<point x="309.8881835938" y="1158.9976196289"/>
		</contour>
	</outline>
</glyph>
<glyph name="one" format="2">
	<unicode hex="0031"/>
	<advance width="658"/>
	<outline>
		<contour>
			<point x="106.5822753906" y="44" type="line"/>
			<point x="128.5822753906" y="106"/>
			<point x="159.6427001953" y="214.1127929688"/>
			<point x="182.6507568359" y="321.3464355469" type="qcurve" smooth="yes"/>
			<point x="326.1583251953" y="988.4039306641" type="line"/>
			<point x="363.6898193359" y="1289.0188598633" type="line"/>
			<point x="59.5123291016" y="1101.9987792969" type="line"/>
			<point x="18.0308837891" y="1234.2404785156" type="line"/>
			<point x="362.0380249023" y="1528.9477539062" type="line"/>
			<point x="552.0639038086" y="1418.6435546875" type="line"/>
			<point x="532.1903686523" y="1379.5927734375"/>
			<point x="512.1412963867" y="1299.19921875"/>
			<point x="507.7741088867" y="1278.99609375" type="qcurve" smooth="yes"/>
			<point x="397.723815918" y="720.9013671875" type="line"/>
			<point x="306.4458618164" y="150" type="line"/>
			<point x="247.8615722656" y="-34" type="line"/>
		</contour>
	</outline>
</glyph>
<glyph name="two" format="2">
	<unicode hex="0032"/>
	<advance width="939"/>
	<outline>
		<contour>
			<point x="-105.8071289062" y="-9.9033203125" type="qcurve"/>
			<point x="-160.8175048828" y="93.4700927734" type="line"/>
			<point x="-17.4309082031" y="195.2698974609" type="line" smooth="yes"/>
			<point x="283.6014404297" y="418.0397949219"/>
			<point x="761.7911376953" y="881.478515625"/>
			<point x="758.3619384766" y="1088.2419433594" type="qcurve" smooth="yes"/>
			<point x="756.4398193359" y="1203.7001953125"/>
			<point x="612.5405273438" y="1318.3151855469"/>
			<point x="499.8712158203" y="1318.3151855469" type="qcurve" smooth="yes"/>
			<point x="385.4177246094" y="1318.3151855469"/>
			<point x="140.5671386719" y="1250.5115966797"/>
			<point x="52.9049072266" y="1189.1607666016" type="qcurve"/>
			<point x="26.7756347656" y="1302.5849609375" type="line"/>
			<point x="120.7984008789" y="1399.5286865234"/>
			<point x="376.8706665039" y="1522.7277832031"/>
			<point x="576.6127929688" y="1522.7277832031" type="qcurve" smooth="yes"/>
			<point x="716.9064331055" y="1522.7277832031"/>
			<point x="901.3077392578" y="1354.3986816406"/>
			<point x="913.0667724609" y="1176.1461181641" type="qcurve" smooth="yes"/>
			<point x="927.0472412109" y="873.0806884766"/>
			<point x="375.8526611328" y="328.5104980469"/>
			<point x="98.0936889648" y="109.158203125" type="qcurve"/>
			<point x="101.4365844727" y="100.2459716797" type="line"/>
			<point x="116.5364379883" y="104.158203125"/>
			<point x="203.065612793" y="124.98828125"/>
			<point x="260.2437133789" y="124.6690673828" type="qcurve"/>
			<point x="330.7740478516" y="117.299621582"/>
			<point x="547.9151611328" y="74.2315063477"/>
			<point x="613.8133544922" y="54.0268554688" type="qcurve"/>
			<point x="742.6134033203" y="271.8302001953" type="line"/>
			<point x="838.4704589844" y="245.6223144531" type="line"/>
			<point x="729.3848876953" y="-29.7905273438" type="line"/>
			<point x="668.44140625" y="-12.8879394531"/>
			<point x="451.0634765625" y="67.7316894531"/>
			<point x="354.4248046875" y="69.2698974609" type="qcurve" smooth="yes"/>
			<point x="225.8393554688" y="69.2658691406"/>
			<point x="-39.4429931641" y="20.1853027344"/>
		</contour>
	</outline>
</glyph>
<glyph name="three" format="2">
	<unicode hex="0033"/>
	<advance width="1090"/>
	<outline>
		<contour>
			<point x="-123.2819824219" y="221.1018066406" type="qcurve"/>
			<point x="-123.1357421875" y="283.1834716797"/>
			<point x="-61.8618164062" y="364.4537353516"/>
			<point x="0.3513183594" y="377.4537353516" type="qcurve"/>
			<point x="120.205078125" y="377.43359375" type="line"/>
			<point x="111.205078125" y="340.4134521484"/>
			<point x="108.205078125" y="276.4094238281"/>
			<point x="108.205078125" y="252.3812255859" type="qcurve" smooth="yes"/>
			<point x="107.9125976562" y="184.17578125"/>
			<point x="238.1766357422" y="76.0227050781"/>
			<point x="387.4262695312" y="76.0227050781" type="qcurve" smooth="yes"/>
			<point x="589.7954101562" y="76.0227050781"/>
			<point x="810.7685546875" y="294.6876220703"/>
			<point x="811.2072753906" y="467.8049316406" type="qcurve" smooth="yes"/>
			<point x="811.7922363281" y="614.8757324219"/>
			<point x="619.2369384766" y="760.0246582031"/>
			<point x="422.6420898438" y="760.0770263672" type="qcurve" smooth="yes"/>
			<point x="329.572265625" y="760.26171875" type="line"/>
			<point x="333.8439941406" y="882.9639892578" type="line"/>
			<point x="395.0654296875" y="882.9680175781" type="line" smooth="yes"/>
			<point x="598.5126953125" y="882.9801025391"/>
			<point x="864.4260253906" y="1048.3524169922"/>
			<point x="864.8647460938" y="1181.5003662109" type="qcurve" smooth="yes"/>
			<point x="865.1572265625" y="1270.5166015625"/>
			<point x="743.4916992188" y="1368.0100097656"/>
			<point x="644.2635498047" y="1368.0100097656" type="qcurve" smooth="yes"/>
			<point x="489.3978271484" y="1368.0100097656"/>
			<point x="228.9652099609" y="1251.2407836914"/>
			<point x="139.9809570312" y="1182.5275878906" type="qcurve"/>
			<point x="101.3602294922" y="1302.5771484375" type="line"/>
			<point x="186.9631347656" y="1390.8231811523"/>
			<point x="488.419921875" y="1536.2592163086"/>
			<point x="665.103515625" y="1536.0323486328" type="qcurve" smooth="yes"/>
			<point x="843.4247436523" y="1535.805480957"/>
			<point x="1050.9522094727" y="1364.6134033203"/>
			<point x="1050.5134887695" y="1211.2508544922" type="qcurve" smooth="yes"/>
			<point x="1050.2210083008" y="1050.8842773438"/>
			<point x="848.4205322266" y="865.3887939453"/>
			<point x="661.8186645508" y="839.3162841797" type="qcurve"/>
			<point x="660.8186645508" y="833.3001708984" type="line"/>
			<point x="807.0237426758" y="814.9910888672"/>
			<point x="998.5872192383" y="633.7523193359"/>
			<point x="998.1484985352" y="453.3172607422" type="qcurve" smooth="yes"/>
			<point x="997.709777832" y="249.7412109375"/>
			<point x="676.7844238281" y="-25"/>
			<point x="371.3286132812" y="-25" type="qcurve" smooth="yes"/>
			<point x="74.4843139648" y="-25"/>
			<point x="-123.4282226562" y="121.0681152344"/>
		</contour>
	</outline>
</glyph>
<glyph name="four" format="2">
	<unicode hex="0034"/>
	<advance width="1124"/>
	<outline>
		<contour>
			<point x="-44.7462158203" y="416.4562988281" type="line"/>
			<point x="-34.7462158203" y="581.2165527344" type="line"/>
			<point x="1089.6594238281" y="1566.9155273438" type="line"/>
			<point x="1029.9527587891" y="1464.9155273438" type="line"/>
			<point x="1054.9527587891" y="1419.9155273438" type="line"/>
			<point x="893.4814453125" y="521.2165527344" type="line"/>
			<point x="884.4814453125" y="488.2165527344" type="line"/>
			<point x="833.2961425781" y="241.3907470703" type="line"/>
			<point x="833.2276611328" y="83" type="line"/>
			<point x="792.9343261719" y="-41" type="line"/>
			<point x="630.9343261719" y="82" type="line"/>
			<point x="715.1881103516" y="484.2165527344" type="line"/>
			<point x="725.1881103516" y="521.2165527344" type="line"/>
			<point x="868.0074462891" y="1171.9250488281" type="line"/>
			<point x="187.6094970703" y="571.4328613281" type="line"/>
			<point x="191.6094970703" y="561.4328613281" type="line"/>
			<point x="837.0214233398" y="561.9265136719" type="line"/>
			<point x="1078.7893066406" y="563.9265136719" type="line"/>
			<point x="1057.3205566406" y="407.4562988281" type="line"/>
			<point x="836.5526733398" y="423.1018066406" type="line"/>
		</contour>
	</outline>
</glyph>
<glyph name="five" format="2">
	<unicode hex="0035"/>
	<advance width="1184"/>
	<outline>
		<contour>
			<point x="-36.1973876953" y="216.4552001953" type="qcurve" smooth="yes"/>
			<point x="-43.1973876953" y="291.0494384766"/>
			<point x="57.8924560547" y="411.8410644531"/>
			<point x="144.9488525391" y="415.7625732422" type="qcurve"/>
			<point x="218.3475341797" y="415.7464599609" type="line"/>
			<point x="218.3475341797" y="280.3122558594" type="line" smooth="yes"/>
			<point x="218.3475341797" y="193.8502197266"/>
			<point x="352.0270996094" y="78.0822753906"/>
			<point x="482.3044433594" y="78.0822753906" type="qcurve" smooth="yes"/>
			<point x="651.5944824219" y="78.0822753906"/>
			<point x="925.9787597656" y="314.8062744141"/>
			<point x="916.125" y="559.6677246094" type="qcurve" smooth="yes"/>
			<point x="910.2712402344" y="716.1042480469"/>
			<point x="594.5041503906" y="830.1540527344"/>
			<point x="388.3715820312" y="782.3846435547" type="qcurve" smooth="yes"/>
			<point x="254.4733886719" y="750.9006347656" type="line"/>
			<point x="185.4833984375" y="834.5458984375" type="line"/>
			<point x="364.6743164062" y="1470.9719238281" type="line"/>
			<point x="400.9194335938" y="1503.9678955078" type="line"/>
			<point x="1135.5484619141" y="1503.9678955078" type="line"/>
			<point x="1108.7095336914" y="1418.0508422852" type="line"/>
			<point x="515.5087280273" y="1418.0508422852" type="line"/>
			<point x="502.5087280273" y="1407.022644043" type="line"/>
			<point x="457.7014160156" y="1238.6619262695"/>
			<point x="388.5357666016" y="939.2189331055"/>
			<point x="344.7944335938" y="873.8970947266" type="qcurve"/>
			<point x="668.4992675781" y="967.5245361328" type="line"/>
			<point x="881.7380981445" y="993.2320556641"/>
			<point x="1081.2093505859" y="796.9122314453"/>
			<point x="1092.0631103516" y="594.5509033203" type="qcurve" smooth="yes"/>
			<point x="1106.7706298828" y="304.2846679688"/>
			<point x="714.1488037109" y="-31"/>
			<point x="384.2926635742" y="-31" type="qcurve" smooth="yes"/>
			<point x="174.003112793" y="-31"/>
			<point x="-28.1973876953" y="113.2618408203"/>
		</contour>
	</outline>
</glyph>
<glyph name="six" format="2">
	<unicode hex="0036"/>
	<advance width="992"/>
	<outline>
		<contour>
			<point x="51" y="508.2971191406" type="qcurve" smooth="yes"/>
			<point x="57.1462402344" y="911.1712646484"/>
			<point x="695.2913208008" y="1515.9381713867"/>
			<point x="1083.1102294922" y="1584.1088867188" type="qcurve"/>
			<point x="1118.3542480469" y="1487.6807861328" type="line"/>
			<point x="758.4002685547" y="1367.0185546875"/>
			<point x="225.2673339844" y="833.181640625"/>
			<point x="208.6701660156" y="415.271484375" type="qcurve" smooth="yes"/>
			<point x="200.2984619141" y="244.3699951172"/>
			<point x="318.3647460938" y="79.1330566406"/>
			<point x="439.6942749023" y="79.1330566406" type="qcurve" smooth="yes"/>
			<point x="541.9238891602" y="79.1330566406"/>
			<point x="743.0045166016" y="297.5876464844"/>
			<point x="749.5333251953" y="505.3413085938" type="qcurve" smooth="yes"/>
			<point x="754.8826904297" y="630.7095947266"/>
			<point x="654.3509521484" y="781.2126464844"/>
			<point x="575.8065185547" y="781.2126464844" type="qcurve" smooth="yes"/>
			<point x="530.0418701172" y="781.2126464844"/>
			<point x="411.8924560547" y="730.4491577148"/>
			<point x="368.9688110352" y="694.9778442383" type="qcurve"/>
			<point x="357.8362426758" y="767.8057250977" type="line"/>
			<point x="387.3208007812" y="813.186340332"/>
			<point x="560.772644043" y="917.3958740234"/>
			<point x="697.8798828125" y="917.3958740234" type="qcurve" smooth="yes"/>
			<point x="785.8318481445" y="917.3958740234"/>
			<point x="935.3187255859" y="722.6079101562"/>
			<point x="931.1724853516" y="535.1177978516" type="qcurve" smooth="yes"/>
			<point x="925.8800048828" y="276.7510986328"/>
			<point x="582.8614501953" y="-28"/>
			<point x="380.9598388672" y="-28" type="qcurve" smooth="yes"/>
			<point x="266.8923950195" y="-28"/>
			<point x="47.8537597656" y="262.5909423828"/>
		</contour>
	</outline>
</glyph>
<glyph name="seven" format="2">
	<unicode hex="0037"/>
	<advance width="981"/>
	<outline>
		<contour>
			<point x="32.1694335938" y="1274.4247436523" type="line"/>
			<point x="99.119140625" y="1503.9759521484" type="line"/>
			<point x="1097.9860839844" y="1503.9759521484" type="line"/>
			<point x="1127.0217285156" y="1460.0003662109" type="line"/>
			<point x="869.1227416992" y="1100.6354980469"/>
			<point x="414.2901000977" y="306.8922119141"/>
			<point x="277.9114379883" y="23.477722168" type="qcurve"/>
			<point x="196.8422241211" y="-11.1254272461" type="line"/>
			<point x="82.2719726562" y="21.4270019531" type="line"/>
			<point x="229.271484375" y="378.5972900391"/>
			<point x="695.7766113281" y="1114.7655029297"/>
			<point x="953.0603027344" y="1458.5509643555" type="qcurve"/>
			<point x="937.4440917969" y="1477.5509643555" type="line"/>
			<point x="261.6340332031" y="1477.7155151367" type="line"/>
			<point x="135.1682128906" y="1275.0072631836" type="line"/>
		</contour>
	</outline>
</glyph>
<glyph name="eight" format="2">
	<unicode hex="0038"/>
	<advance width="1078"/>
	<outline>
		<contour>
			<point x="586.0793457031" y="884.5061035156" type="qcurve"/>
			<point x="693.4748535156" y="816.9154052734" type="line"/>
			<point x="557.4649047852" y="753.4630126953"/>
			<point x="311.3979492188" y="497.2476806641"/>
			<point x="312.2476806641" y="361.2561035156" type="qcurve" smooth="yes"/>
			<point x="313.2436523438" y="250.7661132812"/>
			<point x="397.0681762695" y="98.5500488281"/>
			<point x="496.7077026367" y="98.5500488281" type="qcurve" smooth="yes"/>
			<point x="629.8060302734" y="98.5500488281"/>
			<point x="845.0502319336" y="304.8931884766"/>
			<point x="845.2005004883" y="444.9616088867" type="qcurve" smooth="yes"/>
			<point x="845.350769043" y="595.3537597656"/>
			<point x="654.4942626953" y="774.3478393555"/>
			<point x="515.6751708984" y="869.2362670898" type="qcurve" smooth="yes"/>
			<point x="391.9225463867" y="959.4229125977"/>
			<point x="233.8253173828" y="1169.0244140625"/>
			<point x="233.9715576172" y="1259.0811157227" type="qcurve" smooth="yes"/>
			<point x="234.2640380859" y="1321.5052490234"/>
			<point x="382.5419921875" y="1534.9765625"/>
			<point x="663.1059570312" y="1534.9765625" type="qcurve" smooth="yes"/>
			<point x="888.737121582" y="1534.8303222656"/>
			<point x="1020.2065429688" y="1363.7410888672"/>
			<point x="1017.872253418" y="1271.6550292969" type="qcurve" smooth="yes"/>
			<point x="1013.3728637695" y="1129.1675415039"/>
			<point x="787.7720336914" y="941.8001098633"/>
			<point x="537.8129272461" y="837.0499267578" type="qcurve"/>
			<point x="426.0523071289" y="909.4202880859" type="line"/>
			<point x="578.3345336914" y="992.1997070312"/>
			<point x="688.112487793" y="1192.2077636719"/>
			<point x="687.2886352539" y="1275.2197265625" type="qcurve" smooth="yes"/>
			<point x="685.6150512695" y="1333.8395996094"/>
			<point x="666.2365722656" y="1396.38671875"/>
			<point x="619.6633911133" y="1396.38671875" type="qcurve" smooth="yes"/>
			<point x="514.57421875" y="1396.38671875"/>
			<point x="400.9635009766" y="1271.5394287109"/>
			<point x="400.9635009766" y="1172.5081176758" type="qcurve" smooth="yes"/>
			<point x="400.8172607422" y="1107.7346191406"/>
			<point x="491.0181884766" y="972.8712158203"/>
			<point x="673.7835693359" y="860.9426269531" type="qcurve" smooth="yes"/>
			<point x="836.5497436523" y="760.2295532227"/>
			<point x="949.6113891602" y="529.7791137695"/>
			<point x="949.4570922852" y="421.1948852539" type="qcurve" smooth="yes"/>
			<point x="949.1565551758" y="292.8090820312"/>
			<point x="661.4691162109" y="-21"/>
			<point x="387.0583496094" y="-21" type="qcurve" smooth="yes"/>
			<point x="218.9782104492" y="-21"/>
			<point x="-16.0697021484" y="163.6485595703"/>
			<point x="-15.9194335938" y="344.2165527344" type="qcurve" smooth="yes"/>
			<point x="-15.6229248047" y="542.8753662109"/>
			<point x="319.6597900391" y="807.1104125977"/>
		</contour>
	</outline>
</glyph>
<glyph name="nine" format="2">
	<unicode hex="0039"/>
	<advance width="1000"/>
	<outline>
		<contour>
			<point x="-119.8768310547" y="-67.845703125" type="qcurve"/>
			<point x="-154.8283691406" y="28.5823974609" type="line"/>
			<point x="217.1173095703" y="149.2446289062"/>
			<point x="752.279296875" y="688.8845214844"/>
			<point x="766.3903808594" y="1098.4025878906" type="qcurve" smooth="yes"/>
			<point x="773.5921630859" y="1275.0881347656"/>
			<point x="652.4981079102" y="1443.5389404297"/>
			<point x="546.7028198242" y="1443.5389404297" type="qcurve" smooth="yes"/>
			<point x="439.1348266602" y="1443.5389404297"/>
			<point x="239.3155517578" y="1216.9428100586"/>
			<point x="225.8380126953" y="1012.4465332031" type="qcurve" smooth="yes"/>
			<point x="217.5992431641" y="887.0782470703"/>
			<point x="306.5845336914" y="736.6154785156"/>
			<point x="399.7110595703" y="736.6154785156" type="qcurve" smooth="yes"/>
			<point x="445.3294677734" y="736.6154785156"/>
			<point x="564.1370849609" y="787.7080688477"/>
			<point x="607.5726928711" y="823.014831543" type="qcurve"/>
			<point x="615.5787963867" y="750.3515014648" type="line"/>
			<point x="586.38671875" y="704.9708862305"/>
			<point x="412.9348754883" y="600.7613525391"/>
			<point x="275.6813964844" y="600.7613525391" type="qcurve" smooth="yes"/>
			<point x="187.8756713867" y="600.6151123047"/>
			<point x="40.0526123047" y="791.0661621094"/>
			<point x="44.3450927734" y="978.5562744141" type="qcurve" smooth="yes"/>
			<point x="49.4913330078" y="1236.9108886719"/>
			<point x="392.6561279297" y="1544.0899658203"/>
			<point x="594.4114990234" y="1544.0899658203" type="qcurve" smooth="yes"/>
			<point x="700.1683349609" y="1544.0899658203"/>
			<point x="927.517578125" y="1247.0755004883"/>
			<point x="924.3713378906" y="1007.8452148438" type="qcurve" smooth="yes"/>
			<point x="918.2250976562" y="604.9710693359"/>
			<point x="270.8460083008" y="0.1787719727"/>
		</contour>
	</outline>
</glyph>
<glyph name="D" format="2">
	<unicode hex="0044"/>
	<advance width="1492"/>
	<outline>
		<contour>
			<point x="-71.0280151367" y="0" type="line"/>
			<point x="-53.8789672852" y="99.9951171875" type="line"/>
			<point x="127.6339111328" y="114.9951171875" type="line"/>
			<point x="279.1848144531" y="806" type="line"/>
			<point x="379.5856933594" y="1364.0048828125" type="line"/>
			<point x="170.2170410156" y="1386.0048828125" type="line"/>
			<point x="176.4508666992" y="1500" type="line"/>
			<point x="880.2459716797" y="1500" type="line" smooth="yes"/>
			<point x="1107.23828125" y="1500"/>
			<point x="1401.9905395508" y="1123"/>
			<point x="1366.0677490234" y="739" type="qcurve" smooth="yes"/>
			<point x="1336.1820678711" y="391"/>
			<point x="935.1213989258" y="0"/>
			<point x="621.8045654297" y="0" type="qcurve" smooth="yes"/>
		</contour>
		<contour>
			<point x="294.7850341797" y="111.492980957" type="line"/>
			<point x="319.0057373047" y="102.530090332"/>
			<point x="545.6187744141" y="98.492980957"/>
			<point x="604.5777587891" y="99.492980957" type="qcurve" smooth="yes"/>
			<point x="862.5040283203" y="103.492980957"/>
			<point x="1139.6853027344" y="443.5447387695"/>
			<point x="1187.5623779297" y="788" type="qcurve" smooth="yes"/>
			<point x="1231.3399047852" y="1110.2253417969"/>
			<point x="1045.2053222656" y="1410.4571533203"/>
			<point x="802.5645751953" y="1406.4571533203" type="qcurve" smooth="yes"/>
			<point x="741.3848876953" y="1404.4571533203"/>
			<point x="588.3946533203" y="1402.4571533203"/>
			<point x="550.7305908203" y="1393.4571533203" type="qcurve"/>
			<point x="421.5311279297" y="754" type="line"/>
		</contour>
	</outline>
	<anchor name="bottom" x="686" y="0"/>
	<anchor name="center" x="448" y="754"/>
	<anchor name="top" x="827" y="1500"/>
	<anchor name="liga" x="1431" y="0"/>
</glyph>
<glyph name="E" format="2">
	<unicode hex="0045"/>
	<advance width="1247"/>
	<outline>
		<contour>
			<point x="-71.3876953125" y="0" type="line"/>
			<point x="-54.4125366211" y="99.9951171875" type="line"/>
			<point x="137.0614013672" y="119.9951171875" type="line"/>
			<point x="282.9123535156" y="806" type="line"/>
			<point x="378.7633056641" y="1364.0048828125" type="line"/>
			<point x="158.1832275391" y="1387.0048828125" type="line"/>
			<point x="167.0911865234" y="1500" type="line"/>
			<point x="1258.2061767578" y="1500" type="line"/>
			<point x="1213.1602172852" y="1154.9771118164" type="line"/>
			<point x="1133.0895385742" y="1154.9771118164" type="line"/>
			<point x="1116.4486694336" y="1374.0342407227" type="line"/>
			<point x="587.3732910156" y="1374.0342407227" type="line"/>
			<point x="547.3732910156" y="1350.0342407227" type="line"/>
			<point x="437.1304321289" y="783" type="line"/>
			<point x="316.1608886719" y="159.1458129883" type="line"/>
			<point x="351.1608886719" y="125.1458129883" type="line"/>
			<point x="936.8262939453" y="125.1458129883" type="line"/>
			<point x="1051.1575927734" y="387.8650512695" type="line"/>
			<point x="1129.9536132812" y="387.8650512695" type="line"/>
			<point x="1036.2061767578" y="0" type="line"/>
		</contour>
		<contour>
			<point x="178.6793823242" y="715.7784423828" type="line"/>
			<point x="196.6621704102" y="819.6075439453" type="line"/>
			<point x="924.809387207" y="833.6075439453" type="line"/>
			<point x="985.2109985352" y="993.1644287109" type="line"/>
			<point x="1042.6478881836" y="993.1644287109" type="line"/>
			<point x="957.2144775391" y="553.0384521484" type="line"/>
			<point x="899.6860351562" y="553.0384521484" type="line"/>
			<point x="899.0522460938" y="719.7784423828" type="line"/>
		</contour>
	</outline>
	<anchor name="bottom" x="518" y="0"/>
	<anchor name="ogonek" x="827" y="0"/>
	<anchor name="top" x="789" y="1500"/>
	<anchor name="tonos" x="81" y="1500"/>
</glyph>
<glyph name="G" format="2">
	<unicode hex="0047"/>
	<advance width="1408"/>
	<outline>
		<contour>
			<point x="100.3596801758" y="786" type="qcurve" smooth="yes"/>
			<point x="161.3596801758" y="1138"/>
			<point x="564.3423743238" y="1560.614074707"/>
			<point x="996.4905676832" y="1518.799621582" type="qcurve" smooth="yes"/>
			<point x="1118.2408118238" y="1506.799621582"/>
			<point x="1291.3708167067" y="1452.9998168945"/>
			<point x="1347.2313513746" y="1425.7998657227" type="qcurve" smooth="yes"/>
			<point x="1346.4623084059" y="1420.7999267578" type="line"/>
			<point x="1336.8688635817" y="1415" type="line"/>
			<point x="1262.1810584059" y="1011.0883178711" type="line"/>
			<point x="1165.9042029371" y="1011.0883178711" type="line"/>
			<point x="1173.0312781324" y="1239.6806030273" type="line"/>
			<point x="1159.0910315504" y="1295.48046875"/>
			<point x="1031.0841345777" y="1389.4802246094"/>
			<point x="950.1765418043" y="1399.4802246094" type="qcurve" smooth="yes"/>
			<point x="719.0218176832" y="1429.0875244141"/>
			<point x="341.3521118164" y="1096"/>
			<point x="291.3521118164" y="759" type="qcurve" smooth="yes"/>
			<point x="245.618347168" y="463"/>
			<point x="438.1695837965" y="143.5162963867"/>
			<point x="678.0229773512" y="127.1995849609" type="qcurve" smooth="yes"/>
			<point x="767.6440711012" y="124.7462158203"/>
			<point x="877.1368689527" y="137.5991821289"/>
			<point x="939.8712439527" y="160.5991821289" type="qcurve"/>
			<point x="1040.2383704176" y="586.0048828125" type="line"/>
			<point x="825.1813635817" y="611.3049316406" type="line"/>
			<point x="838.9134802809" y="712" type="line"/>
			<point x="1382.9737830152" y="712" type="line"/>
			<point x="1365.8938879957" y="609.5548095703" type="line"/>
			<point x="1204.6969275465" y="585.0048828125" type="line"/>
			<point x="1110.8459753981" y="181" type="line"/>
			<point x="1013.5235266676" y="124" type="line"/>
			<point x="934.7178015699" y="57"/>
			<point x="757.8993811598" y="-26.399597168"/>
			<point x="632.5051550856" y="-23.399597168" type="qcurve" smooth="yes"/>
			<point x="365.7539343824" y="-15.399597168"/>
			<point x="34.3596801758" y="405"/>
		</contour>
	</outline>
	<anchor name="bottom" x="667" y="0"/>
	<anchor name="top" x="907" y="1492"/>
</glyph>
<glyph name="K" format="2">
	<unicode hex="004B"/>
	<advance width="1230"/>
	<outline>
		<contour>
			<point x="-66.9255981445" y="0" type="line"/>
			<point x="-41.5154418945" y="99.9951171875" type="line"/>
			<point x="139.6973876953" y="114.9951171875" type="line"/>
			<point x="296.5483398438" y="858" type="line"/>
			<point x="382.2492675781" y="1364.0048828125" type="line"/>
			<point x="162.9931030273" y="1386.0048828125" type="line"/>
			<point x="170.5532836914" y="1500" type="line"/>
			<point x="779.0772094727" y="1500" type="line"/>
			<point x="751.5170288086" y="1386.0048828125" type="line"/>
			<point x="554.7147827148" y="1364.0048828125" type="line"/>
			<point x="449.8638305664" y="826" type="line"/>
			<point x="307.6129760742" y="114.9951171875" type="line"/>
			<point x="517.8779296875" y="99.9951171875" type="line"/>
			<point x="505.4677734375" y="0" type="line"/>
		</contour>
		<contour>
			<point x="475.7312011719" y="668.0219116211" type="line"/>
			<point x="514.2852783203" y="847.5938720703" type="line"/>
			<point x="1027.264465332" y="1378.0048828125" type="line"/>
			<point x="841.8127441406" y="1387.0048828125" type="line"/>
			<point x="855.3729248047" y="1500" type="line"/>
			<point x="1496.9465332031" y="1500" type="line"/>
			<point x="1483.3863525391" y="1387.0048828125" type="line"/>
			<point x="1284.2567138672" y="1378.0048828125" type="line"/>
		</contour>
		<contour>
			<point x="544.5426635742" y="873.6478881836" type="line"/>
			<point x="718.5867919922" y="977.8653564453" type="line"/>
			<point x="1079.8514404297" y="114.9951171875" type="line"/>
			<point x="1295.4998168945" y="99.9951171875" type="line"/>
			<point x="1290.0896606445" y="0" type="line"/>
			<point x="645.4768676758" y="0" type="line"/>
			<point x="654.8870239258" y="99.9951171875" type="line"/>
			<point x="835.0361938477" y="114.9951171875" type="line"/>
		</contour>
	</outline>
	<anchor name="bottom" x="607" y="0"/>
	<anchor name="top" x="896" y="1500"/>
	<anchor name="kai_tail" x="1201" y="100"/>
</glyph>
<glyph name="L" format="2">
	<unicode hex="004C"/>
	<advance width="1096"/>
	<outline>
		<contour>
			<point x="-76.5538330078" y="0" type="line"/>
			<point x="-51.9697875977" y="99.9951171875" type="line"/>
			<point x="129.2430419922" y="117.9951171875" type="line"/>
			<point x="276.0939941406" y="806" type="line"/>
			<point x="372.9449462891" y="1373.0048828125" type="line"/>
			<point x="158.7760009766" y="1386.0048828125" type="line"/>
			<point x="167.1861572266" y="1500" type="line"/>
			<point x="766.2536010742" y="1500" type="line"/>
			<point x="737.8434448242" y="1386.0048828125" type="line"/>
			<point x="541.065612793" y="1373.0048828125" type="line"/>
			<point x="421.2146606445" y="754" type="line"/>
			<point x="305.1518554688" y="148.4560546875" type="line"/>
			<point x="338.1518554688" y="121.4560546875" type="line"/>
			<point x="844.1697998047" y="121.4560546875" type="line"/>
			<point x="1011.1419677734" y="408.7878417969" type="line"/>
			<point x="1098.5085449219" y="408.7878417969" type="line"/>
			<point x="938.2329711914" y="0" type="line"/>
		</contour>
	</outline>
	<anchor name="bottom" x="535" y="0"/>
	<anchor name="centerright" x="755" y="750"/>
	<anchor name="top" x="878" y="1500"/>
	<anchor name="topright" x="804" y="1001"/>
	<anchor name="center" x="397" y="750"/>
	<anchor name="liga" x="1104" y="0"/>
</glyph>
<glyph name="N" format="2">
	<unicode hex="004E"/>
	<advance width="1568"/>
	<outline>
		<contour>
			<point x="-101.2886352539" y="0" type="line"/>
			<point x="-78.8784790039" y="99.9951171875" type="line"/>
			<point x="131.3343505859" y="129.9951171875" type="line"/>
			<point x="263.1853027344" y="754" type="line"/>
			<point x="382.0362548828" y="1361.0048828125" type="line"/>
			<point x="155.5189819336" y="1388.0048828125" type="line"/>
			<point x="166.9291381836" y="1500" type="line"/>
			<point x="657.30859375" y="1500" type="line"/>
			<point x="924.5294799805" y="808.8638305664" type="line"/>
			<point x="1061.7960205078" y="448.7887573242" type="line"/>
			<point x="1085.3118286133" y="367.2390136719" type="line"/>
			<point x="1095.3118286133" y="370.2390136719" type="line"/>
			<point x="1116.0861816406" y="491.4646606445" type="line"/>
			<point x="1181.3515014648" y="803" type="line"/>
			<point x="1289.2024536133" y="1353.0048828125" type="line"/>
			<point x="1045.5551757812" y="1387.0048828125" type="line"/>
			<point x="1062.4869995117" y="1500" type="line"/>
			<point x="1664.7095947266" y="1500" type="line"/>
			<point x="1648.7777709961" y="1387.0048828125" type="line"/>
			<point x="1428.7388305664" y="1353.0048828125" type="line"/>
			<point x="1315.887878418" y="779" type="line"/>
			<point x="1162.887878418" y="0" type="line"/>
			<point x="1036.5341186523" y="0" type="line"/>
			<point x="745.5201416016" y="736.3577880859" type="line"/>
			<point x="555.4710693359" y="1196.4520874023" type="line"/>
			<point x="514.1779174805" y="1301.8656616211" type="line"/>
			<point x="504.1779174805" y="1298.8656616211" type="line"/>
			<point x="479.9522705078" y="1157.6400146484" type="line"/>
			<point x="388.7216796875" y="701" type="line"/>
			<point x="267.8707275391" y="129.9951171875" type="line"/>
			<point x="511.9530029297" y="99.9951171875" type="line"/>
			<point x="497.5428466797" y="0" type="line"/>
		</contour>
	</outline>
	<anchor name="bottom" x="640" y="0"/>
	<anchor name="top" x="884" y="1500"/>
	<anchor name="engtail" x="1041" y="0"/>
	<anchor name="liga" x="1432" y="0"/>
</glyph>
<glyph name="P" format="2">
	<unicode hex="0050"/>
	<advance width="1202"/>
	<outline>
		<contour>
			<point x="-81.8173828125" y="0" type="line"/>
			<point x="-56.4072265625" y="99.9951171875" type="line"/>
			<point x="124.2795410156" y="112.9951171875" type="line"/>
			<point x="275.8304443359" y="836" type="line"/>
			<point x="368.2313232422" y="1364.0048828125" type="line"/>
			<point x="148.8402099609" y="1387.0048828125" type="line"/>
			<point x="157.7481689453" y="1500" type="line"/>
			<point x="910.9996337891" y="1500" type="line" smooth="yes"/>
			<point x="990.5228881836" y="1500"/>
			<point x="1209.1802368164" y="1259.3859863281"/>
			<point x="1186.0570068359" y="1040.6787109375" type="qcurve" smooth="yes"/>
			<point x="1164.0704345703" y="828.2447509766"/>
			<point x="945.3727416992" y="586.357421875"/>
			<point x="726.9851074219" y="586.357421875" type="qcurve" smooth="yes"/>
			<point x="617.6822509766" y="586.357421875"/>
			<point x="362.200378418" y="600.7673950195"/>
			<point x="320.8295898438" y="602.4940795898" type="qcurve"/>
			<point x="340.1767578125" y="719" type="line"/>
			<point x="369.9554443359" y="716"/>
			<point x="533.4493408203" y="707"/>
			<point x="572.9735107422" y="707" type="qcurve" smooth="yes"/>
			<point x="750.6275634766" y="707"/>
			<point x="931.9447021484" y="873.6851806641"/>
			<point x="954.9447021484" y="1044.6851806641" type="qcurve" smooth="yes"/>
			<point x="974.9447021484" y="1193.6851806641"/>
			<point x="834.9749145508" y="1385.8671264648"/>
			<point x="675.2166137695" y="1385.8671264648" type="qcurve" smooth="yes"/>
			<point x="559.7861938477" y="1385.8671264648" type="line"/>
			<point x="533.3762207031" y="1362.3638916016" type="line"/>
			<point x="417.1767578125" y="764" type="line"/>
			<point x="295.6258544922" y="119.9951171875" type="line"/>
			<point x="532.7991943359" y="99.9951171875" type="line"/>
			<point x="515.3890380859" y="0" type="line"/>
		</contour>
	</outline>
	<anchor name="bottom" x="634" y="0"/>
	<anchor name="top" x="634" y="1500"/>
</glyph>
<glyph name="V" format="2">
	<unicode hex="0056"/>
	<advance width="1208"/>
	<outline>
		<contour>
			<point x="1.9777832031" y="1385.9547119141" type="line"/>
			<point x="22.0791015625" y="1500" type="line"/>
			<point x="635.4284057617" y="1500" type="line"/>
			<point x="615.7771606445" y="1388.0550537109" type="line"/>
			<point x="375.5004272461" y="1350.0048828125" type="line"/>
			<point x="397.3910522461" y="745.564453125" type="line"/>
			<point x="414.4898071289" y="396.7565917969" type="line"/>
			<point x="418.3840942383" y="257.8179321289" type="line"/>
			<point x="430.3840942383" y="257.8179321289" type="line"/>
			<point x="521.8727416992" y="402.639831543" type="line"/>
			<point x="755.6734619141" y="827.3986206055" type="line"/>
			<point x="1025.1557617188" y="1343.0048828125" type="line"/>
			<point x="790.5639038086" y="1387.9050292969" type="line"/>
			<point x="808.8240356445" y="1500" type="line"/>
			<point x="1425.5086669922" y="1500" type="line"/>
			<point x="1406.7984619141" y="1385.8046875" type="line"/>
			<point x="1198.4067993164" y="1349.0048828125" type="line"/>
			<point x="879.5439453125" y="792.5826416016" type="line"/>
			<point x="396.5155639648" y="0" type="line"/>
			<point x="286.7768554688" y="0" type="line"/>
			<point x="250.4124145508" y="753.6759033203" type="line"/>
			<point x="216.6656494141" y="1348.0048828125" type="line"/>
		</contour>
	</outline>
	<anchor name="bottom" x="373" y="0"/>
	<anchor name="top" x="743" y="1500"/>
</glyph>
<glyph name="W" format="2">
	<unicode hex="0057"/>
	<advance width="1903"/>
	<outline>
		<contour>
			<point x="3.8171386719" y="1387.0048828125" type="line"/>
			<point x="21.2901000977" y="1500" type="line"/>
			<point x="638.6376953125" y="1500" type="line"/>
			<point x="621.1647338867" y="1387.0048828125" type="line"/>
			<point x="401.2119140625" y="1349.0048828125" type="line"/>
			<point x="410.4940795898" y="838.7236328125" type="line"/>
			<point x="430.0614013672" y="331.0857543945" type="line"/>
			<point x="430.6188354492" y="210.0392456055" type="line"/>
			<point x="443.6188354492" y="210.0392456055" type="line"/>
			<point x="510.4994506836" y="337.5532226562" type="line"/>
			<point x="705.623840332" y="717.3538818359" type="line"/>
			<point x="932.2351074219" y="1115.6928710938" type="line"/>
			<point x="934.2233276367" y="1345.0048828125" type="line"/>
			<point x="729.8355102539" y="1382.0048828125" type="line"/>
			<point x="749.1345825195" y="1500" type="line"/>
			<point x="1331.2950439453" y="1500" type="line"/>
			<point x="1312.34375" y="1390.0048828125" type="line"/>
			<point x="1087.0864868164" y="1345.0048828125" type="line"/>
			<point x="1098.6209106445" y="876.9390869141" type="line"/>
			<point x="1125.9197387695" y="330.1613769531" type="line"/>
			<point x="1127.6907348633" y="208.0392456055" type="line"/>
			<point x="1142.6907348633" y="208.0392456055" type="line"/>
			<point x="1210.1037597656" y="336.4098510742" type="line"/>
			<point x="1449.387878418" y="804.4056396484" type="line"/>
			<point x="1708.8692016602" y="1343.0048828125" type="line"/>
			<point x="1505.9608154297" y="1387.0048828125" type="line"/>
			<point x="1524.5209960938" y="1500" type="line"/>
			<point x="2133.7535400391" y="1500" type="line"/>
			<point x="2115.193359375" y="1387.0048828125" type="line"/>
			<point x="1888.2405395508" y="1349.0048828125" type="line"/>
			<point x="1544.8545532227" y="694.6213378906" type="line"/>
			<point x="1144.1146240234" y="0" type="line"/>
			<point x="959.1878051758" y="0" type="line"/>
			<point x="931.3120727539" y="777.0446777344" type="line"/>
			<point x="932.965637207" y="871.2424316406" type="line"/>
			<point x="922.965637207" y="871.2424316406" type="line"/>
			<point x="795.5000610352" y="647.2716674805" type="line"/>
			<point x="473.8754272461" y="0" type="line"/>
			<point x="295.8540039062" y="0" type="line"/>
			<point x="262.0454101562" y="732.7236328125" type="line"/>
			<point x="213.6827392578" y="1349.0048828125" type="line"/>
		</contour>
	</outline>
	<anchor name="bottom" x="691" y="0"/>
	<anchor name="top" x="981" y="1500"/>
</glyph>
<glyph name="X" format="2">
	<unicode hex="0058"/>
	<advance width="1283"/>
	<outline>
		<contour>
			<point x="-159.9508056641" y="0" type="line"/>
			<point x="-145.5406494141" y="99.9951171875" type="line"/>
			<point x="64.23828125" y="128.9951171875" type="line"/>
			<point x="608.8927612305" y="800.1063842773" type="line"/>
			<point x="395.7993164062" y="1350.0048828125" type="line"/>
			<point x="174.3681640625" y="1387.0048828125" type="line"/>
			<point x="187.9283447266" y="1500" type="line"/>
			<point x="829.9691772461" y="1500" type="line"/>
			<point x="816.408996582" y="1386.0048828125" type="line"/>
			<point x="579.4995117188" y="1352.0048828125" type="line"/>
			<point x="693.8764648438" y="1006.0214233398" type="line"/>
			<point x="726.1871337891" y="906.6787719727" type="line"/>
			<point x="736.1871337891" y="906.6787719727" type="line"/>
			<point x="816.5637207031" y="1019.7855834961" type="line"/>
			<point x="1050.7446289062" y="1346.0048828125" type="line"/>
			<point x="873.0962524414" y="1386.0048828125" type="line"/>
			<point x="886.6564331055" y="1500" type="line"/>
			<point x="1485.34375" y="1500" type="line"/>
			<point x="1470.7835693359" y="1386.0048828125" type="line"/>
			<point x="1255.2657470703" y="1350.0048828125" type="line"/>
			<point x="773.6895751953" y="781.7012939453" type="line"/>
			<point x="1029.7467041016" y="128.9951171875" type="line"/>
			<point x="1252.5689697266" y="99.9951171875" type="line"/>
			<point x="1238.1588134766" y="0" type="line"/>
			<point x="589.2656860352" y="0" type="line"/>
			<point x="602.6758422852" y="99.9951171875" type="line"/>
			<point x="843.7592163086" y="128.9951171875" type="line"/>
			<point x="691.7185058594" y="572.4469604492" type="line"/>
			<point x="657.8737182617" y="675.5004272461" type="line"/>
			<point x="647.8737182617" y="675.5004272461" type="line"/>
			<point x="561.5280151367" y="557.7112426758" type="line"/>
			<point x="257.7016601562" y="133.9951171875" type="line"/>
			<point x="466.3500366211" y="99.9951171875" type="line"/>
			<point x="451.9398803711" y="0" type="line"/>
		</contour>
	</outline>
	<anchor name="bottom" x="453" y="0"/>
	<anchor name="top" x="723" y="1500"/>
	<anchor name="cy_descender" x="1125" y="100"/>
	<anchor name="center" x="591" y="791"/>
</glyph>
<glyph name="Y" format="2">
	<unicode hex="0059"/>
	<advance width="1138"/>
	<outline>
		<contour>
			<point x="64.6434936523" y="0" type="line"/>
			<point x="80.0536499023" y="99.9951171875" type="line"/>
			<point x="328.8314819336" y="124.9951171875" type="line"/>
			<point x="431.1029052734" y="643.6510620117" type="line"/>
			<point x="336.6557617188" y="925.7337646484" type="line"/>
			<point x="183.7161865234" y="1346.0048828125" type="line"/>
			<point x="-13.6477661133" y="1387.0048828125" type="line"/>
			<point x="0.9124145508" y="1500" type="line"/>
			<point x="580.9092407227" y="1500" type="line"/>
			<point x="566.3490600586" y="1387.0048828125" type="line"/>
			<point x="357.3894042969" y="1355.0048828125" type="line"/>
			<point x="463.9708862305" y="1051.6669921875" type="line"/>
			<point x="545.4514160156" y="785.4462280273" type="line"/>
			<point x="555.4514160156" y="785.4462280273" type="line"/>
			<point x="763.6497802734" y="1067.6267089844" type="line"/>
			<point x="967.9089355469" y="1348.0048828125" type="line"/>
			<point x="774.6303100586" y="1387.0048828125" type="line"/>
			<point x="789.1904907227" y="1500" type="line"/>
			<point x="1368.0115356445" y="1500" type="line"/>
			<point x="1352.4513549805" y="1387.0048828125" type="line"/>
			<point x="1132.3874511719" y="1346.0048828125" type="line"/>
			<point x="856.7655639648" y="983.305847168" type="line"/>
			<point x="573.5332641602" y="622.1130371094" type="line"/>
			<point x="478.1777954102" y="124.9951171875" type="line"/>
			<point x="714.7817382812" y="99.9951171875" type="line"/>
			<point x="705.3715820312" y="0" type="line"/>
		</contour>
	</outline>
	<anchor name="bottom" x="443" y="0"/>
	<anchor name="top" x="731" y="1500"/>
	<anchor name="tonos" x="-13" y="1500"/>
	<anchor name="center" x="553" y="579"/>
</glyph>
<glyph name="a" format="2">
	<unicode hex="0061"/>
	<advance width="1220"/>
	<outline>
		<contour>
			<point x="5.6689453125" y="276" type="qcurve" smooth="yes"/>
			<point x="-5.3310546875" y="584.2854003906"/>
			<point x="455.5489702922" y="1013.6184692383"/>
			<point x="554.2303667766" y="1013.6184692383" type="qcurve" smooth="yes"/>
			<point x="685.3955279094" y="1013.6184692383"/>
			<point x="807.3028564453" y="948.6184692383"/>
			<point x="835.4113769531" y="922.6184692383" type="qcurve"/>
			<point x="863.4749145508" y="1012.6184692383" type="line"/>
			<point x="922.5802001953" y="1012.6184692383" type="line"/>
			<point x="1009.2276812297" y="811.6184692383" type="line"/>
			<point x="902.7494707805" y="393" type="line"/>
			<point x="863.8429766399" y="229" type="line"/>
			<point x="863.1255694133" y="168"/>
			<point x="891.5282793743" y="76"/>
			<point x="928.9749956829" y="20" type="qcurve"/>
			<point x="737.2081056142" y="-9" type="line"/>
			<point x="713.3139405752" y="4.1740722656"/>
			<point x="695.6973023916" y="128.967590332"/>
			<point x="689.8495240713" y="187.3805541992" type="qcurve"/>
			<point x="573.0752931142" y="98.4313964844"/>
			<point x="371.753698876" y="-30"/>
			<point x="268.4474244619" y="-30" type="qcurve" smooth="yes"/>
			<point x="137.3581910635" y="-30"/>
			<point x="10.6689453125" y="139"/>
		</contour>
		<contour>
			<point x="190.7932739258" y="269.0035400391" type="qcurve" smooth="yes"/>
			<point x="190.7932739258" y="178.6229248047"/>
			<point x="231.1186114055" y="94.0848999023"/>
			<point x="296.8571367961" y="93.0848999023" type="qcurve" smooth="yes"/>
			<point x="424.6386309368" y="91.0848999023"/>
			<point x="727.6511431438" y="368"/>
			<point x="755.1826539541" y="526" type="qcurve" smooth="yes"/>
			<point x="824.935200761" y="826.5335693359" type="line"/>
			<point x="824.3201293945" y="849.5335693359"/>
			<point x="746.5386553508" y="887.4072875977"/>
			<point x="646.6479082805" y="887.4072875977" type="qcurve" smooth="yes"/>
			<point x="452.7141924602" y="887.4072875977"/>
			<point x="190.7932739258" y="502.2854003906"/>
		</contour>
	</outline>
	<anchor name="bottom" x="345" y="0"/>
	<anchor name="ogonek" x="732" y="0"/>
	<anchor name="top" x="608" y="1000"/>
</glyph>
<glyph name="b" format="2">
	<unicode hex="0062"/>
	<advance width="1164"/>
	<outline>
		<contour>
			<point x="86.0675513039" y="313" type="qcurve" smooth="yes"/>
			<point x="147.0675513039" y="633" type="line"/>
			<point x="305.7584082375" y="1449.5043945312" type="line"/>
			<point x="207.3632666359" y="1529.5043945312" type="line"/>
			<point x="227.1724097024" y="1609.5" type="line"/>
			<point x="359.9307104836" y="1665.5" type="line"/>
			<point x="457.9307104836" y="1556.5" type="line"/>
			<point x="270.4307104836" y="572" type="line"/>
			<point x="177.0723120461" y="102.1702880859" type="line" smooth="yes"/>
			<point x="166.0723120461" y="47.3023681641"/>
			<point x="279.3541723977" y="7.1702880859"/>
			<point x="317.9623266945" y="8.1702880859" type="qcurve" smooth="yes"/>
			<point x="486.1891943703" y="10.1702880859"/>
			<point x="803.4353491555" y="396.43359375"/>
			<point x="804.152756382" y="620.6031494141" type="qcurve" smooth="yes"/>
			<point x="804.152756382" y="741.2822265625"/>
			<point x="751.9386450539" y="857.6783447266"/>
			<point x="662.2325293313" y="856.6783447266" type="qcurve" smooth="yes"/>
			<point x="575.9725195656" y="855.6783447266"/>
			<point x="304.3693701516" y="715.8220825195"/>
			<point x="238.449631382" y="649.7089233398" type="qcurve"/>
			<point x="195.0354468117" y="748.4673461914" type="line"/>
			<point x="294.1454931984" y="820.9443969727"/>
			<point x="656.0699927102" y="1038.9995117188"/>
			<point x="741.8779761086" y="1038.9995117188" type="qcurve" smooth="yes"/>
			<point x="852.2587134133" y="1038.9995117188"/>
			<point x="972.4703223" y="831.9995117188"/>
			<point x="972.1116186867" y="665.9995117188" type="qcurve" smooth="yes"/>
			<point x="971.3942114602" y="355.9995117188"/>
			<point x="528.2858740578" y="-31"/>
			<point x="365.5809790383" y="-31" type="qcurve" smooth="yes"/>
			<point x="166.0812842141" y="-31"/>
			<point x="60.0675513039" y="177"/>
		</contour>
	</outline>
	<anchor name="bottom" x="571" y="0"/>
	<anchor name="top" x="571" y="1533"/>
</glyph>
<glyph name="c" format="2">
	<unicode hex="0063"/>
	<advance width="1001"/>
	<outline>
		<contour>
			<point x="0.6595458984" y="499.9997558594" type="qcurve" smooth="yes"/>
			<point x="33.7547607422" y="737.9520263672"/>
			<point x="431.2156982422" y="1025.5991210938"/>
			<point x="638.7474365234" y="1025.5991210938" type="qcurve" smooth="yes"/>
			<point x="742.9401855469" y="1025.5991210938"/>
			<point x="890.8068237305" y="929.6967163086"/>
			<point x="898.8068237305" y="853.0288696289" type="qcurve" smooth="yes"/>
			<point x="904.8068237305" y="770.0755615234"/>
			<point x="819.3716430664" y="636.8834838867"/>
			<point x="740.0124511719" y="616.8834838867" type="qcurve"/>
			<point x="708.5306396484" y="642.8834838867" type="line"/>
			<point x="698.8961181641" y="832.2503051758" type="line" smooth="yes"/>
			<point x="697.5310668945" y="858.2503051758"/>
			<point x="654.7817382812" y="885.8983764648"/>
			<point x="578.5549316406" y="885.8983764648" type="qcurve" smooth="yes"/>
			<point x="420.3417358398" y="885.8983764648"/>
			<point x="182.9733276367" y="654.4758300781"/>
			<point x="169.9339599609" y="494.2378540039" type="qcurve" smooth="yes"/>
			<point x="154.3149414062" y="329.9046630859"/>
			<point x="234.4220581055" y="126.7360839844"/>
			<point x="369.1295776367" y="126.7360839844" type="qcurve" smooth="yes"/>
			<point x="521.1950073242" y="126.7360839844"/>
			<point x="741.7070922852" y="258.0640258789"/>
			<point x="762.3485107422" y="324.63671875" type="qcurve"/>
			<point x="823.8992919922" y="252" type="line"/>
			<point x="826.8992919922" y="202" type="line"/>
			<point x="771.0161743164" y="83.475769043"/>
			<point x="515.4774780273" y="-24.599609375"/>
			<point x="327.5871582031" y="-24.599609375" type="qcurve" smooth="yes"/>
			<point x="122.2026367188" y="-24.599609375"/>
			<point x="-32.6737670898" y="262.333190918"/>
		</contour>
	</outline>
	<anchor name="bottom" x="343" y="0"/>
	<anchor name="top" x="600" y="1000"/>
</glyph>
<glyph name="d" format="2">
	<unicode hex="0064"/>
	<advance width="1273"/>
	<outline>
		<contour>
			<point x="6.6590352445" y="268.2379760742" type="qcurve" smooth="yes"/>
			<point x="-9.2561988687" y="567.1901855469"/>
			<point x="471.4087791586" y="976.2684936523"/>
			<point x="695.0847435141" y="985.9994506836" type="qcurve" smooth="yes"/>
			<point x="832.8662376547" y="985.9994506836" type="line"/>
			<point x="916.9585838461" y="1441.0043945312" type="line"/>
			<point x="798.7334861899" y="1524.0043945312" type="line"/>
			<point x="818.5426292563" y="1609" type="line"/>
			<point x="1013.1836204672" y="1671" type="line"/>
			<point x="1109.1836204672" y="1562" type="line"/>
			<point x="900.6836204672" y="469" type="line"/>
			<point x="843.5929832602" y="130.9956054688" type="line"/>
			<point x="1017.8879051352" y="120.9956054688" type="line"/>
			<point x="1021.0787620688" y="44" type="line"/>
			<point x="759.9053001547" y="-8" type="line"/>
			<point x="686.9053001547" y="73" type="line"/>
			<point x="675.9053001547" y="192" type="line"/>
			<point x="633.3672142172" y="111.9523925781"/>
			<point x="363.1826439047" y="-15"/>
			<point x="240.179653182" y="-15" type="qcurve" smooth="yes"/>
			<point x="120.5519066" y="-15"/>
			<point x="12.3003316312" y="129.5237426758"/>
		</contour>
		<contour>
			<point x="177.0966573148" y="283.5399780273" type="qcurve" smooth="yes"/>
			<point x="179.7466087484" y="177.9579467773"/>
			<point x="242.1838646078" y="102.5476074219"/>
			<point x="297.5372581625" y="102.5476074219" type="qcurve" smooth="yes"/>
			<point x="433.6040916586" y="102.5476074219"/>
			<point x="690.1172752524" y="321.8304443359"/>
			<point x="734.9660911703" y="508.6416015625" type="qcurve" smooth="yes"/>
			<point x="821.6208763266" y="856.1122436523" type="line"/>
			<point x="800.6208763266" y="874.1122436523"/>
			<point x="736.4142723227" y="912.1122436523"/>
			<point x="652.3064842367" y="912.1122436523" type="qcurve" smooth="yes"/>
			<point x="456.6746482992" y="912.1122436523"/>
			<point x="170.8140645413" y="509.0202636719"/>
		</contour>
	</outline>
	<anchor name="bottom" x="604" y="0"/>
	<anchor name="center" x="876" y="1202"/>
	<anchor name="top" x="704" y="1534"/>
	<anchor name="topright" x="1076" y="1000"/>
	<anchor name="liga" x="1067" y="0"/>
</glyph>
<glyph name="e" format="2">
	<unicode hex="0065"/>
	<advance width="1009"/>
	<outline>
		<contour>
			<point x="14.1057739258" y="534.1901855469" type="qcurve" smooth="yes"/>
			<point x="48.6771850586" y="776.5710449219"/>
			<point x="420.9260864258" y="1031.0471191406"/>
			<point x="569.7872314453" y="1031.0471191406" type="qcurve" smooth="yes"/>
			<point x="688.2086791992" y="1031.0471191406"/>
			<point x="858.0142211914" y="921.940246582"/>
			<point x="874.8388061523" y="851.1559448242" type="qcurve" smooth="yes"/>
			<point x="881.5116577148" y="814.676574707"/>
			<point x="898.9049072266" y="672.0355834961"/>
			<point x="893.775390625" y="635.1901855469" type="qcurve"/>
			<point x="935.5372924805" y="626.1901855469" type="line"/>
			<point x="896.8885498047" y="525.7559814453" type="line"/>
			<point x="879.3299560547" y="527.7559814453"/>
			<point x="622.8077392578" y="526.9382324219"/>
			<point x="607.1729736328" y="527.7559814453" type="qcurve" smooth="yes"/>
			<point x="179.6790771484" y="525.7559814453" type="line"/>
			<point x="181.5659179688" y="619.1901855469" type="line"/>
			<point x="598.591003418" y="627.1901855469" type="line"/>
			<point x="604.3848876953" y="652.1901245117"/>
			<point x="614.315612793" y="728.3393554688"/>
			<point x="607.2523193359" y="775.5375976562" type="qcurve" smooth="yes"/>
			<point x="602.4755859375" y="820.8771972656"/>
			<point x="533.9724121094" y="887.3111572266"/>
			<point x="489.8711547852" y="887.3111572266" type="qcurve" smooth="yes"/>
			<point x="380.2454223633" y="887.3111572266"/>
			<point x="205.3018188477" y="692.3329467773"/>
			<point x="176.7304077148" y="510.1901855469" type="qcurve" smooth="yes"/>
			<point x="149.3018798828" y="341.2856445312"/>
			<point x="252.4375610352" y="139.0134277344"/>
			<point x="362.7893066406" y="128.9246826172" type="qcurve" smooth="yes"/>
			<point x="476.0748291016" y="119.0432739258"/>
			<point x="702.3382568359" y="236.3530273438"/>
			<point x="735.8900146484" y="314.7173461914" type="qcurve"/>
			<point x="789.4186401367" y="252" type="line"/>
			<point x="823.4186401367" y="218.3587036133" type="line"/>
			<point x="725.7022705078" y="90.0856323242"/>
			<point x="463.9076538086" y="-25.7232055664"/>
			<point x="305.6733398438" y="-27" type="qcurve" smooth="yes"/>
			<point x="223.2173461914" y="-35.315246582"/>
			<point x="-17.7989501953" y="305.9046630859"/>
		</contour>
	</outline>
	<anchor name="bottom" x="339" y="0"/>
	<anchor name="ogonek" x="495" y="0"/>
	<anchor name="top" x="601" y="1000"/>
</glyph>
<glyph name="f" format="2">
	<unicode hex="0066"/>
	<advance width="563"/>
	<outline>
		<contour>
			<point x="-403.2326049805" y="-444.7437744141" type="line" smooth="yes"/>
			<point x="-381.4831542969" y="-317.2827148438" type="line"/>
			<point x="-191.0692749023" y="-315.2827148438" type="line" smooth="yes"/>
			<point x="-101.3956298828" y="-313.9906616211"/>
			<point x="-48.8887329102" y="-202.6436157227"/>
			<point x="15.5061035156" y="163.3764038086" type="qcurve" smooth="yes"/>
			<point x="139.4464111328" y="864.9995117188" type="line"/>
			<point x="151.1543579102" y="901.9995117188" type="line"/>
			<point x="221.7615966797" y="1277.5" type="line" smooth="yes"/>
			<point x="258.6122436523" y="1474.9995727539"/>
			<point x="365.3641357422" y="1644.5"/>
			<point x="482.7368774414" y="1644.5" type="qcurve" smooth="yes"/>
			<point x="569.8591918945" y="1644.5"/>
			<point x="677.3648071289" y="1555.7369995117"/>
			<point x="677.3648071289" y="1487.0847167969" type="qcurve" smooth="yes"/>
			<point x="677.3648071289" y="1440.432434082"/>
			<point x="645.3704833984" y="1374.4151000977"/>
			<point x="664.6237182617" y="1374.4151000977" type="qcurve" smooth="yes"/>
			<point x="639.6237182617" y="1374.4151000977"/>
			<point x="613.6237182617" y="1392.4151000977"/>
			<point x="613.6237182617" y="1421.4151000977" type="qcurve" smooth="yes"/>
			<point x="613.6237182617" y="1459.4151000977"/>
			<point x="567.553527832" y="1540.4635620117"/>
			<point x="505.899230957" y="1540.4635620117" type="qcurve" smooth="yes"/>
			<point x="427.1654663086" y="1540.4635620117"/>
			<point x="366.8422241211" y="1452.4519042969"/>
			<point x="356.0787353516" y="1355.7515258789" type="qcurve" smooth="yes"/>
			<point x="286.522277832" y="897.9995117188" type="line"/>
			<point x="285.522277832" y="872.9995117188" type="line"/>
			<point x="162.3795166016" y="214" type="line" smooth="yes"/>
			<point x="81.0166015625" y="-223.8693847656"/>
			<point x="-11.0393676758" y="-486.7437744141"/>
			<point x="-110.942565918" y="-486.7437744141" type="qcurve"/>
		</contour>
		<contour>
			<point x="-70.3073730469" y="843.8350219727" type="line"/>
			<point x="-57.6568603516" y="897.9995117188" type="line"/>
			<point x="160.2338256836" y="939.9995117188" type="line"/>
			<point x="546.9877929688" y="939.9995117188" type="line"/>
			<point x="536.0033569336" y="837.8350219727" type="line"/>
			<point x="225.2037963867" y="844.8350219727" type="line"/>
			<point x="169.8358764648" y="826.8350219727" type="line"/>
		</contour>
	</outline>
	<anchor name="bottom" x="217" y="0"/>
	<anchor name="top" x="554" y="1536"/>
</glyph>
<glyph name="g" format="2">
	<unicode hex="0067"/>
	<advance width="1196"/>
	<outline>
		<contour>
			<point x="7.6646235822" y="280" type="qcurve" smooth="yes"/>
			<point x="-2.6179691912" y="578.9996948242"/>
			<point x="468.4337275861" y="1013.4279785156"/>
			<point x="551.6462520002" y="1013.4279785156" type="qcurve" smooth="yes"/>
			<point x="707.4721797346" y="1013.4279785156"/>
			<point x="720.7377436994" y="943.4279785156"/>
			<point x="750.3571895002" y="921.4279785156" type="qcurve"/>
			<point x="757.176647508" y="1011.4279785156" type="line"/>
			<point x="909.176647508" y="1011.4279785156" type="line"/>
			<point x="997.176647508" y="812.4279785156" type="line"/>
			<point x="934.4624751447" y="586" type="line" smooth="yes"/>
			<point x="881.9862788556" y="388"/>
			<point x="836.2826045392" y="172.0055541992"/>
			<point x="800.2312739728" y="31.8439941406" type="qcurve" smooth="yes"/>
			<point x="723.574291551" y="-268.7966918945"/>
			<point x="347.5583613752" y="-516.4902954102"/>
			<point x="223.1751216291" y="-506.4902954102" type="qcurve"/>
			<point x="31.6237300275" y="-461.4902954102" type="line"/>
			<point x="27.2132686017" y="-368.7612304688" type="line"/>
			<point x="262.3441279767" y="-371.7612304688" type="line" smooth="yes"/>
			<point x="390.0705073713" y="-374.5789794922"/>
			<point x="543.759472215" y="-203.0276489258"/>
			<point x="599.2849849103" y="27.8439941406" type="qcurve" smooth="yes"/>
			<point x="634.5161860822" y="173" type="line"/>
			<point x="588.2203486799" y="120"/>
			<point x="326.0120356916" y="-16"/>
			<point x="248.4549678205" y="-16" type="qcurve" smooth="yes"/>
			<point x="134.7114985822" y="-16"/>
			<point x="12.3059199689" y="143"/>
		</contour>
		<contour>
			<point x="171.4715083478" y="309" type="qcurve" smooth="yes"/>
			<point x="174.1128047346" y="223"/>
			<point x="229.8975337385" y="141.2454833984"/>
			<point x="303.168835008" y="141.2454833984" type="qcurve" smooth="yes"/>
			<point x="427.0045894025" y="141.2454833984"/>
			<point x="688.6735957502" y="363"/>
			<point x="728.3148921369" y="520" type="qcurve" smooth="yes"/>
			<point x="814.217663133" y="855.8049316406" type="line"/>
			<point x="792.7837031721" y="870.8049316406"/>
			<point x="731.719616258" y="903.8049316406"/>
			<point x="621.7851680158" y="903.8049316406" type="qcurve" smooth="yes"/>
			<point x="466.4447749494" y="903.8049316406"/>
			<point x="164.8302119611" y="473.3806762695"/>
		</contour>
	</outline>
	<anchor name="bottom" x="324" y="-416"/>
	<anchor name="top" x="603" y="1000"/>
</glyph>
<glyph name="h" format="2">
	<unicode hex="0068"/>
	<advance width="1231"/>
	<outline>
		<contour>
			<point x="72.2368164062" y="4" type="line"/>
			<point x="24.2368164062" y="136" type="line"/>
			<point x="129.2368164062" y="527" type="line"/>
			<point x="292.6776733398" y="1454.0043945312" type="line"/>
			<point x="164.2825317383" y="1530.0043945312" type="line"/>
			<point x="184.0916748047" y="1610" type="line"/>
			<point x="367.2937011719" y="1670" type="line"/>
			<point x="465.2937011719" y="1561" type="line"/>
			<point x="297.0437011719" y="588" type="line"/>
			<point x="219.0437011719" y="193" type="line"/>
			<point x="298.0437011719" y="25" type="line"/>
		</contour>
		<contour>
			<point x="746.5495605469" y="-27" type="line"/>
			<point x="653.5495605469" y="113" type="line"/>
			<point x="791.4371948242" y="738.1180419922" type="line" smooth="yes"/>
			<point x="806.7637939453" y="805.7737426758"/>
			<point x="777.2198486328" y="855.9924316406"/>
			<point x="660.8087158203" y="855.9924316406" type="qcurve" smooth="yes"/>
			<point x="567.7315063477" y="855.9924316406"/>
			<point x="365.6864013672" y="755.7705688477"/>
			<point x="279.7142333984" y="687.9924316406" type="qcurve"/>
			<point x="235.2799682617" y="727.9995117188" type="line"/>
			<point x="359.796875" y="867.1491699219"/>
			<point x="650.3541259766" y="1018.9995117188"/>
			<point x="786.4671630859" y="1018.9995117188" type="qcurve" smooth="yes"/>
			<point x="874.0755615234" y="1018.9995117188"/>
			<point x="976.5528564453" y="864.0574951172"/>
			<point x="943.4686279297" y="693.4212036133" type="qcurve" smooth="yes"/>
			<point x="834.0768432617" y="132.9956054688" type="line"/>
			<point x="988.4719848633" y="137.9956054688" type="line"/>
			<point x="987.6628417969" y="50" type="line"/>
		</contour>
	</outline>
	<anchor name="bottom" x="420" y="0"/>
	<anchor name="center" x="347" y="1202"/>
	<anchor name="top" x="424" y="1534"/>
</glyph>
<glyph name="k" format="2">
	<unicode hex="006B"/>
	<advance width="997"/>
	<outline>
		<contour>
			<point x="508.6322021484" y="444.9254760742" type="line"/>
			<point x="154.5141601562" y="204.207824707" type="line"/>
			<point x="107.7463378906" y="286.446472168" type="line"/>
			<point x="625.1540527344" y="657.2535400391" type="line"/>
			<point x="655.9282226562" y="747.7420654297"/>
			<point x="624.9456787109" y="858.4599609375"/>
			<point x="583.1577148438" y="858.4599609375" type="qcurve" smooth="yes"/>
			<point x="520.2197265625" y="858.4599609375"/>
			<point x="376.4140625" y="733.7862548828"/>
			<point x="323.1418457031" y="680.6602783203" type="qcurve"/>
			<point x="319.9990844727" y="664.6607666016" type="line"/>
			<point x="233.4921875" y="189" type="line"/>
			<point x="308.4921875" y="29" type="line"/>
			<point x="74.2368164062" y="5" type="line"/>
			<point x="22.2368164062" y="134" type="line"/>
			<point x="128.2368164062" y="527" type="line"/>
			<point x="292.6776733398" y="1451.2144165039" type="line"/>
			<point x="74.6776733398" y="1531.2144165039" type="line"/>
			<point x="94.4868164062" y="1611" type="line"/>
			<point x="379.7421875" y="1667" type="line"/>
			<point x="477.7421875" y="1558" type="line"/>
			<point x="338.3968505859" y="812.9995117188" type="line"/>
			<point x="399.2509765625" y="879.0184326172"/>
			<point x="584.7814331055" y="1003.7991943359"/>
			<point x="662.813293457" y="1003.7991943359" type="qcurve" smooth="yes"/>
			<point x="750.0084228516" y="1003.7991943359"/>
			<point x="897.6303100586" y="880.2015991211"/>
			<point x="893.1437988281" y="799.7685546875" type="qcurve" smooth="yes"/>
			<point x="889.9797973633" y="739.9046020508" type="line"/>
			<point x="878.2496948242" y="715.3492431641" type="line"/>
			<point x="499.1673583984" y="434.8018798828" type="line"/>
		</contour>
		<contour>
			<point x="565.2996826172" y="541.8670654297" type="line"/>
			<point x="760.6945800781" y="139.9956054688" type="line"/>
			<point x="832.4670410156" y="130.9956054688" type="line"/>
			<point x="827.4670410156" y="45" type="line"/>
			<point x="696.2421875" y="-15" type="line" smooth="yes"/>
			<point x="678.2692871094" y="-21.8381347656"/>
			<point x="645.8009033203" y="-1"/>
			<point x="593.8099365234" y="106" type="qcurve" smooth="yes"/>
			<point x="399.8726806641" y="450.1354980469" type="line"/>
		</contour>
	</outline>
	<anchor name="bottom" x="448" y="0"/>
	<anchor name="top" x="578" y="1534"/>
</glyph>
<glyph name="l" format="2">
	<unicode hex="006C"/>
	<advance width="629"/>
	<outline>
		<contour>
			<point x="93.9812011719" y="-28" type="line"/>
			<point x="27.9812011719" y="108" type="line"/>
			<point x="145.9812011719" y="606" type="line"/>
			<point x="298.5020141602" y="1451.0043945312" type="line"/>
			<point x="191.0269165039" y="1531.0043945312" type="line"/>
			<point x="210.8360595703" y="1611" type="line"/>
			<point x="369.9493408203" y="1667" type="line"/>
			<point x="467.9493408203" y="1558" type="line"/>
			<point x="287.6993408203" y="588" type="line"/>
			<point x="204.928527832" y="139.9956054688" type="line"/>
			<point x="353.9036254883" y="141.9956054688" type="line"/>
			<point x="353.0944824219" y="53" type="line"/>
		</contour>
	</outline>
	<anchor name="bottom" x="201" y="0"/>
	<anchor name="center" x="236" y="770"/>
	<anchor name="top" x="436" y="1534"/>
	<anchor name="topright" x="492" y="1000"/>
	<anchor name="centerright" x="707" y="742"/>
	<anchor name="liga" x="567" y="0"/>
</glyph>
<glyph name="m" format="2">
	<unicode hex="006D"/>
	<advance width="1801"/>
	<outline>
		<contour>
			<point x="60.0048828125" y="-2" type="line"/>
			<point x="17.0048828125" y="145" type="line"/>
			<point x="124.4810791016" y="495.2380981445" type="line"/>
			<point x="184.3385009766" y="805.00390625" type="line"/>
			<point x="39.943359375" y="782.00390625" type="line"/>
			<point x="39.7525024414" y="879.9995117188" type="line"/>
			<point x="74.4077758789" y="1007.9995117188" type="line"/>
			<point x="307.4077758789" y="1007.9995117188" type="line"/>
			<point x="330.6998291016" y="745.1677246094" type="line"/>
			<point x="305.7412109375" y="636.2380981445" type="line"/>
			<point x="209.2650146484" y="194" type="line"/>
			<point x="294.2650146484" y="18" type="line"/>
		</contour>
		<contour>
			<point x="739.5768432617" y="-21" type="line"/>
			<point x="640.5768432617" y="133" type="line"/>
			<point x="762.8779296875" y="673.62890625" type="line" smooth="yes"/>
			<point x="784.5858764648" y="770.8946533203"/>
			<point x="723.55078125" y="848.62890625"/>
			<point x="662.6137084961" y="848.62890625" type="qcurve" smooth="yes"/>
			<point x="588.057434082" y="848.62890625"/>
			<point x="363.9860229492" y="770.7053833008"/>
			<point x="237.5189819336" y="631.0400390625" type="qcurve"/>
			<point x="232.048034668" y="713.2800292969" type="line"/>
			<point x="307.5957641602" y="831.7430419922"/>
			<point x="669.0758056641" y="1013.7991943359"/>
			<point x="802.6771850586" y="1013.7991943359" type="qcurve" smooth="yes"/>
			<point x="870.6596069336" y="1013.7991943359"/>
			<point x="949.188659668" y="857.3817138672"/>
			<point x="912.2329101562" y="670.2888183594" type="qcurve" smooth="yes"/>
			<point x="815.0287475586" y="197" type="line"/>
			<point x="872.0287475586" y="26" type="line"/>
		</contour>
		<contour>
			<point x="1333.1372680664" y="-16" type="line"/>
			<point x="1240.1372680664" y="124" type="line"/>
			<point x="1360.4383544922" y="673.62890625" type="line" smooth="yes"/>
			<point x="1381.2701416016" y="766.5138549805"/>
			<point x="1319.819152832" y="849.62890625"/>
			<point x="1262.2979736328" y="849.62890625" type="qcurve" smooth="yes"/>
			<point x="1182.8655395508" y="849.62890625"/>
			<point x="958.4258422852" y="757.505065918"/>
			<point x="831.3536376953" y="616.6574707031" type="qcurve"/>
			<point x="820.9761962891" y="704.6217041016" type="line"/>
			<point x="899.2692260742" y="808.365234375"/>
			<point x="1264.8839111328" y="1013.7991943359"/>
			<point x="1396.6161499023" y="1013.7991943359" type="qcurve" smooth="yes"/>
			<point x="1473.360168457" y="1013.7991943359"/>
			<point x="1540.5645141602" y="855.8922729492"/>
			<point x="1508.1578369141" y="679.2840576172" type="qcurve" smooth="yes"/>
			<point x="1402.1273193359" y="132.9956054688" type="line"/>
			<point x="1556.5224609375" y="137.9956054688" type="line"/>
			<point x="1555.7133178711" y="50" type="line"/>
		</contour>
	</outline>
	<anchor name="bottom" x="958" y="0"/>
	<anchor name="top" x="958" y="1000"/>
	<anchor name="cy_descender" x="1572" y="134"/>
</glyph>
<glyph name="n" format="2">
	<unicode hex="006E"/>
	<advance width="1167"/>
	<outline>
		<contour>
			<point x="62.1076660156" y="-18.3549804688" type="line"/>
			<point x="17.4721679688" y="73.7390136719" type="line"/>
			<point x="124.0048828125" y="495" type="line"/>
			<point x="188.6653442383" y="826.2653808594" type="line"/>
			<point x="44.2702026367" y="803.2653808594" type="line"/>
			<point x="43.8412475586" y="901.2609863281" type="line"/>
			<point x="237.9575805664" y="1005.0789794922" type="line"/>
			<point x="303.3190307617" y="1005.0789794922" type="line"/>
			<point x="337.7675170898" y="784.8869628906" type="line"/>
			<point x="301.1762695312" y="636" type="line"/>
			<point x="198.2838134766" y="122.358215332" type="line"/>
			<point x="256.064453125" y="12.3622436523" type="line"/>
		</contour>
		<contour>
			<point x="717.4417114258" y="-23.7874145508" type="line"/>
			<point x="650.0255737305" y="88.4675292969" type="line"/>
			<point x="780.6354980469" y="702.2625732422" type="line" smooth="yes"/>
			<point x="800.7079467773" y="791.8514404297"/>
			<point x="768.6329956055" y="875.2625732422"/>
			<point x="657.8573608398" y="875.2625732422" type="qcurve" smooth="yes"/>
			<point x="561.4600219727" y="875.2625732422"/>
			<point x="313.3444824219" y="702.5175170898"/>
			<point x="276.6076660156" y="642.7346191406" type="qcurve"/>
			<point x="225.744140625" y="684.8924560547" type="line"/>
			<point x="335.1726074219" y="842.0022583008"/>
			<point x="644.1113891602" y="1013.7991943359"/>
			<point x="783.6122436523" y="1013.7991943359" type="qcurve" smooth="yes"/>
			<point x="851.4194335938" y="1013.7991943359"/>
			<point x="969.8664550781" y="903.6581420898"/>
			<point x="939.0366210938" y="746.1642456055" type="qcurve" smooth="yes"/>
			<point x="818.6370849609" y="132.9956054688" type="line"/>
			<point x="973.0322265625" y="137.9956054688" type="line"/>
			<point x="972.2230834961" y="50" type="line"/>
		</contour>
	</outline>
	<anchor name="bottom" x="522" y="0"/>
	<anchor name="top" x="602" y="1000"/>
	<anchor name="liga" x="1173" y="0"/>
</glyph>
<glyph name="o" format="2">
	<unicode hex="006F"/>
	<advance width="1124"/>
	<outline>
		<contour>
			<point x="23.1162076383" y="584.454284668" type="qcurve" smooth="yes"/>
			<point x="69.031734982" y="797.6896972656"/>
			<point x="350.6722412109" y="1034.0060424805"/>
			<point x="571.5376553922" y="1018.4216308594" type="qcurve" smooth="yes"/>
			<point x="781.9158325195" y="1003.0023193359"/>
			<point x="962.729309082" y="667.9808959961"/>
			<point x="918.6931762695" y="446.3071289062" type="qcurve" smooth="yes"/>
			<point x="878.5192871094" y="235.0487670898"/>
			<point x="570.9663696289" y="-27.6091308594"/>
			<point x="362.7415128141" y="-4.4221191406" type="qcurve" smooth="yes"/>
			<point x="189.8748168945" y="14.4552001953"/>
			<point x="-28.0018343539" y="360.416015625"/>
		</contour>
		<contour>
			<point x="174.3018765836" y="536.7486572266" type="qcurve" smooth="yes"/>
			<point x="148.701699199" y="360.827895165"/>
			<point x="224.6259732633" y="107.2135009766"/>
			<point x="358.4185758023" y="80.8801269531" type="qcurve" smooth="yes"/>
			<point x="501.852047482" y="55.8801269531"/>
			<point x="722.7606778531" y="295.1768798828"/>
			<point x="746.7341885953" y="490.1172485352" type="qcurve" smooth="yes"/>
			<point x="768.1516080289" y="666.234375"/>
			<point x="653.5729947477" y="904.2591552734"/>
			<point x="520.3444791227" y="919.2591552734" type="qcurve" smooth="yes"/>
			<point x="379.7828336148" y="935.2591552734"/>
			<point x="196.7342911931" y="713.7819461488"/>
		</contour>
	</outline>
	<anchor name="bottom" x="358" y="0"/>
	<anchor name="center" x="461" y="500"/>
	<anchor name="ogonek" x="514" y="0"/>
	<anchor name="top" x="584" y="1000"/>
	<anchor name="topright" x="663" y="1000"/>
	<anchor name="GRKtop" x="584" y="1000"/>
	<anchor name="yu_dash" x="83" y="498"/>
</glyph>
<glyph name="p" format="2">
	<unicode hex="0070"/>
	<advance width="1123"/>
	<outline>
		<contour>
			<point x="-119.071472168" y="-392.167175293" type="line"/>
			<point x="112.4912109375" y="637" type="line"/>
			<point x="137.8720703125" y="759.7138061523" type="line"/>
			<point x="41.8720703125" y="937.7138061523" type="line"/>
			<point x="29.5062255859" y="1047.7138061523" type="line"/>
			<point x="158.5062255859" y="1047.7138061523" type="line"/>
			<point x="267.1417236328" y="800.7899169922" type="line"/>
			<point x="324.6135864258" y="875.6298217773"/>
			<point x="606.6385498047" y="1031.5134887695"/>
			<point x="703.0185546875" y="1031.5134887695" type="qcurve" smooth="yes"/>
			<point x="805.3796386719" y="1031.5134887695"/>
			<point x="935.2190551758" y="856.7615356445"/>
			<point x="934.5016479492" y="675.3806762695" type="qcurve" smooth="yes"/>
			<point x="933.7842407227" y="362.6188964844"/>
			<point x="488.1911010742" y="30"/>
			<point x="283.961730957" y="30" type="qcurve" smooth="yes"/>
			<point x="219.5631713867" y="30"/>
			<point x="138.103515625" y="43"/>
			<point x="121.1253662109" y="51" type="qcurve"/>
			<point x="32.2280883789" y="-351.1715698242" type="line"/>
			<point x="185.6232299805" y="-408.1715698242" type="line"/>
			<point x="162.957824707" y="-470.167175293" type="line"/>
			<point x="-2.071472168" y="-487.167175293" type="line"/>
		</contour>
		<contour>
			<point x="165.3895263672" y="244.8868408203" type="line"/>
			<point x="151.7105102539" y="178.8680419922"/>
			<point x="252.6248168945" y="127.6228027344"/>
			<point x="299.6896362305" y="128.6228027344" type="qcurve" smooth="yes"/>
			<point x="496.7357788086" y="133.6228027344"/>
			<point x="737.5930786133" y="488.7769165039"/>
			<point x="738.3104858398" y="692.4180297852" type="qcurve" smooth="yes"/>
			<point x="739.0278930664" y="771.6083984375"/>
			<point x="679.3900756836" y="852.4942016602"/>
			<point x="611.5500488281" y="850.4942016602" type="qcurve" smooth="yes"/>
			<point x="529.4091186523" y="849.4942016602"/>
			<point x="340.885559082" y="753.9965209961"/>
			<point x="271.7514648438" y="683.543762207" type="qcurve"/>
			<point x="244.3895263672" y="563.1887207031" type="line"/>
		</contour>
	</outline>
	<anchor name="bottom" x="599" y="0"/>
	<anchor name="top" x="599" y="1000"/>
</glyph>
<glyph name="q" format="2">
	<unicode hex="0071"/>
	<advance width="1196"/>
	<outline>
		<contour>
			<point x="5.6689453125" y="271" type="qcurve" smooth="yes"/>
			<point x="-5.3310546875" y="583.9044799805"/>
			<point x="462.8395385742" y="1008.4279785156"/>
			<point x="486.4798583984" y="1008.4279785156" type="qcurve" smooth="yes"/>
			<point x="612.0556030273" y="1008.4279785156"/>
			<point x="743.9787597656" y="939.4279785156"/>
			<point x="774.0330200195" y="917.4279785156" type="qcurve"/>
			<point x="716.0711669922" y="1002.4279785156" type="line"/>
			<point x="888.0711669922" y="1002.4279785156" type="line"/>
			<point x="982.0711669922" y="809.4279785156" type="line"/>
			<point x="900.5950927734" y="501" type="line"/>
			<point x="702.8688964844" y="-344.1715698242" type="line"/>
			<point x="823.9442138672" y="-399.1715698242" type="line"/>
			<point x="794.4888305664" y="-470.167175293" type="line"/>
			<point x="610.2123413086" y="-488.167175293" type="line"/>
			<point x="518.2123413086" y="-393.167175293" type="line"/>
			<point x="651.7137451172" y="155" type="line"/>
			<point x="634.7137451172" y="158" type="line"/>
			<point x="549.7776489258" y="82"/>
			<point x="337.3447265625" y="-10"/>
			<point x="279.5163574219" y="-10" type="qcurve" smooth="yes"/>
			<point x="161.9274902344" y="-10"/>
			<point x="9.6689453125" y="134"/>
		</contour>
		<contour>
			<point x="174.3870849609" y="331" type="qcurve" smooth="yes"/>
			<point x="174.3870849609" y="235"/>
			<point x="230.6670532227" y="159.3963623047"/>
			<point x="301.7861328125" y="159.3963623047" type="qcurve" smooth="yes"/>
			<point x="429.9263305664" y="159.3963623047"/>
			<point x="687.23046875" y="363"/>
			<point x="724.0782470703" y="521" type="qcurve" smooth="yes"/>
			<point x="801.7429199219" y="839.8049316406" type="line"/>
			<point x="785.6676635742" y="855.2388916016"/>
			<point x="706.7987670898" y="901.8049316406"/>
			<point x="633.0059814453" y="901.8049316406" type="qcurve" smooth="yes"/>
			<point x="460.0582275391" y="901.8049316406"/>
			<point x="174.3870849609" y="491.9044799805"/>
		</contour>
	</outline>
	<anchor name="bottom" x="594" y="0"/>
	<anchor name="top" x="594" y="1000"/>
</glyph>
<glyph name="r" format="2">
	<unicode hex="0072"/>
	<advance width="911"/>
	<outline>
		<contour>
			<point x="92.7255859375" y="-14" type="line"/>
			<point x="15.7255859375" y="119" type="line"/>
			<point x="135.7255859375" y="554" type="line"/>
			<point x="186.1469726562" y="806.2420043945" type="line"/>
			<point x="40.7518310547" y="783.2420043945" type="line"/>
			<point x="42.7113037109" y="882.2376098633" type="line"/>
			<point x="104.9133300781" y="1010.2376098633" type="line"/>
			<point x="282.9133300781" y="1010.2376098633" type="line"/>
			<point x="307.9133300781" y="808.2376098633" type="line"/>
			<point x="323.9133300781" y="739.2376098633" type="line"/>
			<point x="199.3416137695" y="145.9956054688" type="line"/>
			<point x="347.9467773438" y="139.9956054688" type="line"/>
			<point x="353.9276123047" y="50" type="line"/>
		</contour>
		<contour>
			<point x="684.6781616211" y="593.5014038086" type="line"/>
			<point x="693.6781005859" y="850.3010864258" type="line"/>
			<point x="588.4582519531" y="850.3010864258"/>
			<point x="309.5925292969" y="741.5014038086"/>
			<point x="172.8052978516" y="601.9266357422" type="qcurve"/>
			<point x="174.7923583984" y="683.6926269531" type="line"/>
			<point x="298.9133300781" y="817.2376098633"/>
			<point x="586.8605957031" y="1022.0372924805"/>
			<point x="689.7583007812" y="1022.0372924805" type="qcurve" smooth="yes"/>
			<point x="779.3566894531" y="1022.0372924805"/>
			<point x="856.1932373047" y="927.0372924805"/>
			<point x="856.1932373047" y="837.0372924805" type="qcurve" smooth="yes"/>
			<point x="856.1932373047" y="702.0372924805"/>
			<point x="838.6781616211" y="593.5014038086"/>
			<point x="750.6781616211" y="593.5014038086" type="qcurve" smooth="yes"/>
		</contour>
	</outline>
	<anchor name="bottom" x="282" y="0"/>
	<anchor name="top" x="486" y="1000"/>
</glyph>
<glyph name="s" format="2">
	<unicode hex="0073"/>
	<advance width="987"/>
	<outline>
		<contour>
			<point x="-54.5324707031" y="218" type="qcurve" smooth="yes"/>
			<point x="-55.5324707031" y="303"/>
			<point x="41.6640625" y="402"/>
			<point x="114.8653564453" y="402" type="qcurve" smooth="yes"/>
			<point x="184.8653564453" y="402" type="line"/>
			<point x="188.8653564453" y="181.9248046875" type="line" smooth="yes"/>
			<point x="189.8653564453" y="131.3587646484"/>
			<point x="178.8638305664" y="94.1175537109"/>
			<point x="381.8663330078" y="94.1175537109" type="qcurve" smooth="yes"/>
			<point x="508.3576660156" y="94.1175537109"/>
			<point x="682.7020874023" y="181.2092285156"/>
			<point x="683.7020874023" y="260.8455200195" type="qcurve" smooth="yes"/>
			<point x="686.7020874023" y="348.0809936523"/>
			<point x="682.2515258789" y="396.0661621094"/>
			<point x="443.6209716797" y="453.8294677734" type="qcurve" smooth="yes"/>
			<point x="218.491394043" y="504.7354125977"/>
			<point x="73.4888916016" y="639.5841064453"/>
			<point x="96.306640625" y="788.6793212891" type="qcurve" smooth="yes"/>
			<point x="122.1243896484" y="881.1424560547"/>
			<point x="380.6533813477" y="1027.5991210938"/>
			<point x="588.4923706055" y="1027.5991210938" type="qcurve" smooth="yes"/>
			<point x="734.3584594727" y="1027.5991210938"/>
			<point x="887.4797363281" y="897.9995117188"/>
			<point x="888.4797363281" y="801.9995117188" type="qcurve" smooth="yes"/>
			<point x="889.4797363281" y="733.7614135742"/>
			<point x="826.4654541016" y="658.9995117188"/>
			<point x="785.7966308594" y="658.9995117188" type="qcurve" smooth="yes"/>
			<point x="689.7966308594" y="658.9995117188" type="line"/>
			<point x="687.7966308594" y="775.6975097656" type="line" smooth="yes"/>
			<point x="686.7966308594" y="828.7185668945"/>
			<point x="630.2967529297" y="906.0140380859"/>
			<point x="497.6495361328" y="906.0140380859" type="qcurve" smooth="yes"/>
			<point x="371.6834106445" y="906.0140380859"/>
			<point x="239.8884277344" y="843.2869873047"/>
			<point x="239.8884277344" y="768.998046875" type="qcurve" smooth="yes"/>
			<point x="239.8884277344" y="694.8607177734"/>
			<point x="326.2523193359" y="653.089050293"/>
			<point x="504.2584228516" y="608.3898925781" type="qcurve" smooth="yes"/>
			<point x="678.5408325195" y="560.3505249023"/>
			<point x="844.6340942383" y="412.9004516602"/>
			<point x="834.6340942383" y="264.2877807617" type="qcurve"/>
			<point x="824.3934326172" y="146.7614135742"/>
			<point x="459.0016479492" y="-25.599609375"/>
			<point x="278.8690795898" y="-25.599609375" type="qcurve" smooth="yes"/>
			<point x="108.5146484375" y="-25.599609375"/>
			<point x="-52.5324707031" y="101"/>
		</contour>
	</outline>
	<anchor name="bottom" x="282" y="0"/>
	<anchor name="top" x="446" y="1000"/>
</glyph>
<glyph name="t" format="2">
	<unicode hex="0074"/>
	<advance width="626"/>
	<outline>
		<contour>
			<point x="114.0905761719" y="-15" type="line"/>
			<point x="30.0905761719" y="107" type="line"/>
			<point x="122.0905761719" y="512" type="line"/>
			<point x="182.8056640625" y="845.470703125" type="line"/>
			<point x="-14.17578125" y="857.470703125" type="line"/>
			<point x="-20.4020996094" y="895.9995117188" type="line"/>
			<point x="168.3482055664" y="928.9995117188"/>
			<point x="343.9262084961" y="1185.6881713867"/>
			<point x="284.6188354492" y="1216.9995117188" type="qcurve"/>
			<point x="309.5596923828" y="1216.9995117188" type="line"/>
			<point x="360.5596923828" y="1139.9995117188" type="line"/>
			<point x="249.6550292969" y="524" type="line"/>
			<point x="191.7243041992" y="161.9956054688" type="line"/>
			<point x="346.715637207" y="154.9956054688" type="line"/>
			<point x="341.2955932617" y="64.1599121094" type="line"/>
		</contour>
		<contour>
			<point x="586.6555175781" y="864.470703125" type="line"/>
			<point x="619.9952392578" y="939.9995117188" type="line"/>
			<point x="568.3636474609" y="939.9995117188" type="line"/>
			<point x="570.0239257812" y="855.470703125" type="line"/>
		</contour>
	</outline>
	<anchor name="bottom" x="149" y="0"/>
	<anchor name="center" x="262" y="622"/>
	<anchor name="top" x="322" y="1179"/>
	<anchor name="topright" x="600" y="920"/>
</glyph>
<glyph name="u" format="2">
	<unicode hex="0075"/>
	<advance width="1229"/>
	<outline>
		<contour>
			<point x="782.7985839844" y="-20" type="line"/>
			<point x="698.7985839844" y="76" type="line"/>
			<point x="699.090637207" y="286" type="line"/>
			<point x="812.1794433594" y="860.2376098633" type="line"/>
			<point x="765.1794433594" y="993.2376098633" type="line"/>
			<point x="923.90234375" y="1021.2376098633" type="line"/>
			<point x="987.90234375" y="892.2376098633" type="line"/>
			<point x="871.8135375977" y="415" type="line"/>
			<point x="846.6909790039" y="135.9956054688" type="line"/>
			<point x="978.0861206055" y="135.9956054688" type="line"/>
			<point x="977.9166259766" y="46" type="line"/>
		</contour>
		<contour>
			<point x="76.9812011719" y="309" type="qcurve" smooth="yes"/>
			<point x="177.9729614258" y="805.2420043945" type="line"/>
			<point x="49.5778198242" y="781.2420043945" type="line"/>
			<point x="45.9669189453" y="879.2376098633" type="line"/>
			<point x="83.1689453125" y="1010.2376098633" type="line"/>
			<point x="263.1689453125" y="1010.2376098633" type="line"/>
			<point x="358.1689453125" y="885.2376098633" type="line"/>
			<point x="244.741394043" y="329.2111816406" type="line" smooth="yes"/>
			<point x="227.3763427734" y="241.2111816406"/>
			<point x="278.9380493164" y="168.8287963867"/>
			<point x="364.3353881836" y="168.8287963867" type="qcurve" smooth="yes"/>
			<point x="447.1837158203" y="168.8287963867"/>
			<point x="720.0227661133" y="265.3168945312"/>
			<point x="757.4624633789" y="348.9546508789" type="qcurve"/>
			<point x="794.4947509766" y="307.9270629883" type="line"/>
			<point x="795.762512207" y="222.2025756836"/>
			<point x="393.8088989258" y="-17"/>
			<point x="278.2426147461" y="-17" type="qcurve" smooth="yes"/>
			<point x="170.2178344727" y="-17"/>
			<point x="46.8713989258" y="162.123840332"/>
		</contour>
	</outline>
	<anchor name="bottom" x="404" y="0"/>
	<anchor name="ogonek" x="871" y="20"/>
	<anchor name="top" x="572" y="1000"/>
	<anchor name="topright" x="915" y="1000"/>
	<anchor name="cy_descender" x="1018" y="134"/>
</glyph>
<glyph name="v" format="2">
	<unicode hex="0076"/>
	<advance width="933"/>
	<outline>
		<contour>
			<point x="195.7298583984" y="-4.1997680664" type="line"/>
			<point x="146.0432128906" y="515.3830566406" type="line"/>
			<point x="111.1286010742" y="801.2420043945" type="line"/>
			<point x="3.7006835938" y="821.2420043945" type="line"/>
			<point x="2.6505737305" y="911.2376098633" type="line"/>
			<point x="185.6613769531" y="1011.2376098633" type="line"/>
			<point x="265.6180419922" y="1011.2376098633" type="line"/>
			<point x="312.7617797852" y="454.9506225586" type="line"/>
			<point x="329.7830810547" y="248.7543334961" type="line"/>
			<point x="331.9188232422" y="159.7965698242" type="line"/>
			<point x="346.8736572266" y="159.7965698242" type="line"/>
			<point x="430.2607421875" y="267.7559204102" type="line"/>
			<point x="628.0768432617" y="497.0684204102"/>
			<point x="688.727722168" y="628.0260009766"/>
			<point x="692.727722168" y="693.8088378906" type="qcurve" smooth="yes"/>
			<point x="696.727722168" y="779.5703125"/>
			<point x="606.8692016602" y="880.1685791016"/>
			<point x="606.8692016602" y="935.0893554688" type="qcurve" smooth="yes"/>
			<point x="606.8692016602" y="967.8854980469"/>
			<point x="663.5408325195" y="1042.4051513672"/>
			<point x="726.0719604492" y="1042.4051513672" type="qcurve" smooth="yes"/>
			<point x="769.3204956055" y="1042.4051513672"/>
			<point x="840.770690918" y="953.9279785156"/>
			<point x="834.770690918" y="815.1468505859" type="qcurve" smooth="yes"/>
			<point x="825.770690918" y="709.9830322266"/>
			<point x="560.34375" y="274.7321777344"/>
			<point x="340.3029785156" y="7.8002319336" type="qcurve"/>
		</contour>
	</outline>
	<anchor name="bottom" x="513" y="0"/>
	<anchor name="top" x="513" y="1000"/>
</glyph>
<glyph name="w" format="2">
	<unicode hex="0077"/>
	<advance width="1402"/>
	<outline>
		<contour>
			<point x="185.9317626953" y="-8" type="line"/>
			<point x="135.1526489258" y="518.6864013672" type="line"/>
			<point x="104.1286010742" y="834.2420043945" type="line"/>
			<point x="3.1748657227" y="831.2420043945" type="line"/>
			<point x="-3.0159912109" y="921.2376098633" type="line"/>
			<point x="56.4479980469" y="1011.2376098633" type="line"/>
			<point x="261.4028320312" y="1011.2376098633" type="line"/>
			<point x="286.3129882812" y="540.6544799805" type="line"/>
			<point x="311.9002685547" y="285.7307128906" type="line"/>
			<point x="312.6842041016" y="179.9642333984" type="line"/>
			<point x="322.6842041016" y="179.9642333984" type="line"/>
			<point x="403.8115844727" y="301.3344116211" type="line"/>
			<point x="463.3489990234" y="384.9356689453"/>
			<point x="569.103515625" y="515.7172851562"/>
			<point x="613.5053100586" y="595.9116821289" type="qcurve"/>
			<point x="579.2333374023" y="835.382019043" type="line"/>
			<point x="548.4719238281" y="832.1785888672" type="line"/>
			<point x="542.3488769531" y="922.3776245117" type="line"/>
			<point x="529.9390869141" y="1010.7421264648" type="line"/>
			<point x="733.1213378906" y="1010.7421264648" type="line"/>
			<point x="775.6712646484" y="492.661315918" type="line"/>
			<point x="798.6784667969" y="284.4658203125" type="line"/>
			<point x="800.4521484375" y="172.5170898438" type="line"/>
			<point x="810.4521484375" y="172.5170898438" type="line"/>
			<point x="908.6756591797" y="309.8120117188" type="line"/>
			<point x="1083.0205078125" y="526.1969604492"/>
			<point x="1170.5557861328" y="680.6727905273"/>
			<point x="1160.6690673828" y="732.7077026367" type="qcurve" smooth="yes"/>
			<point x="1152.9521484375" y="784.2728881836"/>
			<point x="1035.0322265625" y="880.4607543945"/>
			<point x="1035.3967285156" y="939.4895629883" type="qcurve" smooth="yes"/>
			<point x="1035.7612304688" y="986.6813354492"/>
			<point x="1115.8594970703" y="1053.2376098633"/>
			<point x="1180.6027832031" y="1053.2376098633" type="qcurve" smooth="yes"/>
			<point x="1252.3413085938" y="999.2515258789"/>
			<point x="1362.3317871094" y="944.6021118164"/>
			<point x="1356.3317871094" y="830.9666137695" type="qcurve" smooth="yes"/>
			<point x="1347.3317871094" y="704.784362793"/>
			<point x="1084.3670654297" y="360.5793457031"/>
			<point x="794.6511230469" y="4" type="qcurve"/>
			<point x="667.5161132812" y="-8" type="line"/>
			<point x="633.360534668" y="357.2835693359" type="line"/>
			<point x="635.9445800781" y="475.2292480469" type="line"/>
			<point x="625.9445800781" y="475.2292480469" type="line"/>
			<point x="543.9823608398" y="339.3454589844" type="line"/>
			<point x="530.2021484375" y="286.696472168"/>
			<point x="401.5733032227" y="138.6489868164"/>
			<point x="298.7930908203" y="4" type="qcurve"/>
		</contour>
	</outline>
	<anchor name="bottom" x="787" y="0"/>
	<anchor name="top" x="717" y="1000"/>
</glyph>
<glyph name="x" format="2">
	<unicode hex="0078"/>
	<advance width="940"/>
	<outline>
		<contour>
			<point x="129.8771972656" y="-8.5997924805" type="qcurve"/>
			<point x="-75.4208984375" y="50.4002075195" type="line"/>
			<point x="-50.4208984375" y="181.4002075195" type="line"/>
			<point x="123.8771972656" y="179.4002075195" type="line" smooth="yes"/>
			<point x="196.2581176758" y="176.8869628906"/>
			<point x="313.0357055664" y="247.9764404297"/>
			<point x="419.0049438477" y="315.7883911133" type="qcurve" smooth="yes"/>
			<point x="495.6853027344" y="361.9341430664"/>
			<point x="475.2650146484" y="353.2438964844"/>
			<point x="498.7391967773" y="367.9469604492" type="qcurve"/>
			<point x="322.9583129883" y="851.5277099609" type="line"/>
			<point x="150.7658081055" y="832.4680175781" type="line"/>
			<point x="145.9448852539" y="930.5233154297" type="line"/>
			<point x="279.3529663086" y="1022.5233154297" type="line"/>
			<point x="439.3529663086" y="982.5233154297" type="line"/>
			<point x="479.7313842773" y="790.0926513672" type="line"/>
			<point x="489.9949951172" y="699.9544677734" type="line"/>
			<point x="499.9949951172" y="699.9544677734" type="line"/>
			<point x="526.7278442383" y="744.4584960938" type="line" smooth="yes"/>
			<point x="544.6551513672" y="771.1301879883"/>
			<point x="633.3532104492" y="859.2630004883"/>
			<point x="673.3096923828" y="888.1633300781" type="qcurve" smooth="yes"/>
			<point x="733.2866821289" y="924.9604492188"/>
			<point x="881.3458251953" y="1024.1231079102"/>
			<point x="949.6608886719" y="1024.1231079102" type="qcurve" smooth="yes"/>
			<point x="993.0384521484" y="1024.1231079102"/>
			<point x="1028.8778076172" y="952.1231079102"/>
			<point x="1026.8778076172" y="897.1231079102" type="qcurve" smooth="yes"/>
			<point x="1023.8778076172" y="835.1231079102"/>
			<point x="930.8687744141" y="722.1231079102"/>
			<point x="891.8687744141" y="708.1231079102" type="qcurve"/>
			<point x="849.8687744141" y="720.1231079102" type="line"/>
			<point x="850.3732910156" y="752.1050415039" type="line" smooth="yes"/>
			<point x="850.8778076172" y="767.1231079102"/>
			<point x="831.6865234375" y="792.1231079102"/>
			<point x="802.2973632812" y="792.1231079102" type="qcurve" smooth="yes"/>
			<point x="750.5830688477" y="792.1231079102"/>
			<point x="638.7930908203" y="744.9083862305"/>
			<point x="552.8920288086" y="688.2869262695" type="qcurve" smooth="yes"/>
			<point x="494.7142944336" y="648.1223754883"/>
			<point x="513.9448242188" y="659.4071655273"/>
			<point x="477.8775634766" y="627.1692504883" type="qcurve"/>
			<point x="655.5108642578" y="130.9956054688" type="line"/>
			<point x="773.7534790039" y="130.9956054688" type="line"/>
			<point x="781.9443359375" y="49" type="line"/>
			<point x="671.0949707031" y="-5.5496826172" type="line"/>
			<point x="524.0949707031" y="33.4503173828" type="line"/>
			<point x="488.9781494141" y="218.2846069336" type="line"/>
			<point x="476.4764404297" y="300.1846923828" type="line"/>
			<point x="466.4764404297" y="300.1846923828" type="line"/>
			<point x="428.2534790039" y="249.951965332" type="line"/>
			<point x="405.2453613281" y="231.0397949219"/>
			<point x="400.2723388672" y="205.0610961914"/>
			<point x="357.7228393555" y="168.1530761719" type="qcurve" smooth="yes"/>
			<point x="256.5576171875" y="95.0073242188"/>
			<point x="157.6744384766" y="-5.5620727539"/>
		</contour>
	</outline>
	<anchor name="bottom" x="522" y="0"/>
	<anchor name="top" x="522" y="1000"/>
	<anchor name="cy_descender" x="832" y="134"/>
	<anchor name="center" x="432" y="502"/>
</glyph>
<glyph name="y" format="2">
	<unicode hex="0079"/>
	<advance width="899"/>
	<outline>
		<contour>
			<point x="-383.9462280273" y="-449.7576904297" type="line"/>
			<point x="-359.9462280273" y="-280.7576904297" type="line"/>
			<point x="-177.026184082" y="-280.7576904297" type="line" smooth="yes"/>
			<point x="-10.2777709961" y="-280.7576904297"/>
			<point x="194.962097168" y="-142.358215332"/>
			<point x="289.3360595703" y="-11.0451660156" type="qcurve" smooth="yes"/>
			<point x="305.5469970703" y="14" type="line"/>
			<point x="184.6578369141" y="14" type="line"/>
			<point x="197.6169433594" y="79"/>
			<point x="137.5037841797" y="637.2420043945"/>
			<point x="104.818359375" y="835.2420043945" type="qcurve"/>
			<point x="-2.9658813477" y="830.2420043945" type="line"/>
			<point x="-1.0159912109" y="921.2376098633" type="line"/>
			<point x="160.380859375" y="1010.2376098633" type="line"/>
			<point x="235.6345214844" y="1010.2376098633" type="line"/>
			<point x="278.6345214844" y="896.2376098633" type="line"/>
			<point x="325.4876708984" y="179.7751464844" type="line"/>
			<point x="327.486328125" y="60.1486816406" type="line"/>
			<point x="337.486328125" y="60.1486816406" type="line"/>
			<point x="562.0888671875" y="293.8067626953" type="line" smooth="yes"/>
			<point x="706.8447265625" y="486.2443847656"/>
			<point x="710.1636352539" y="689.856262207"/>
			<point x="684.9939575195" y="790.1372680664" type="qcurve" smooth="yes"/>
			<point x="669.8053588867" y="860.9888305664"/>
			<point x="621.8167114258" y="896.3728637695"/>
			<point x="621.8167114258" y="941.3079223633" type="qcurve" smooth="yes"/>
			<point x="621.8167114258" y="989.1351928711"/>
			<point x="692.737487793" y="1054.7897338867"/>
			<point x="758.5742797852" y="1054.7897338867" type="qcurve" smooth="yes"/>
			<point x="829.5838012695" y="1054.7897338867"/>
			<point x="888.789855957" y="965.326965332"/>
			<point x="888.789855957" y="879.9338989258" type="qcurve" smooth="yes"/>
			<point x="888.789855957" y="748.5659790039"/>
			<point x="594.1126708984" y="233.9771728516"/>
			<point x="436.5952148438" y="14.5135498047" type="qcurve" smooth="yes"/>
			<point x="387.5333251953" y="-45" type="line" smooth="yes"/>
			<point x="236.0031738281" y="-236.5725097656"/>
			<point x="12.993347168" y="-492.7576904297"/>
			<point x="-217.0158081055" y="-492.7576904297" type="qcurve"/>
		</contour>
	</outline>
	<anchor name="bottom" x="782" y="0"/>
	<anchor name="top" x="504" y="1000"/>
</glyph>
<glyph name="z" format="2">
	<unicode hex="007A"/>
	<advance width="783"/>
	<outline>
		<contour>
			<point x="-112.7269287109" y="13.6225585938" type="line"/>
			<point x="-130.9951171875" y="89" type="line"/>
			<point x="-16.8354492188" y="224.9047241211"/>
			<point x="130.9211425781" y="417.4284057617"/>
			<point x="249.497253418" y="531.1066894531" type="qcurve" smooth="yes"/>
			<point x="324.0534057617" y="601.4229125977"/>
			<point x="456.6539916992" y="742.8567504883"/>
			<point x="553.6738891602" y="830.9995117188" type="qcurve"/>
			<point x="217.4848022461" y="816.9995117188" type="line"/>
			<point x="129.3783569336" y="690.0004882812" type="line"/>
			<point x="12.2676391602" y="690.0004882812" type="line"/>
			<point x="108.3740844727" y="959.9995117188" type="line"/>
			<point x="198.3740844727" y="1009.9995117188" type="line"/>
			<point x="688.6392211914" y="1009.9995117188" type="line"/>
			<point x="748.3750610352" y="892.9995117188" type="line"/>
			<point x="695.788269043" y="810.8567504883"/>
			<point x="556.3666992188" y="639.4813232422"/>
			<point x="451.7387084961" y="540.3331298828" type="qcurve" smooth="yes"/>
			<point x="361.8824462891" y="454.1903076172"/>
			<point x="194.1611938477" y="297.0952148438"/>
			<point x="113.7912597656" y="232" type="qcurve"/>
			<point x="487.3289794922" y="181.9323730469" type="line"/>
			<point x="625.3553466797" y="335.6647949219" type="line"/>
			<point x="719.4660644531" y="333.7662353516" type="line"/>
			<point x="576.9351806641" y="35.0338134766" type="line"/>
			<point x="483.9351806641" y="-8.9661865234" type="line"/>
			<point x="-38.7833251953" y="46.6604003906" type="line"/>
		</contour>
	</outline>
	<anchor name="bottom" x="443" y="0"/>
	<anchor name="top" x="463" y="1000"/>
	<anchor name="_liga" x="0" y="0"/>
</glyph>
